<svg width="122" height="34" viewBox="0 0 122 34" fill="none" xmlns="http://www.w3.org/2000/svg">
<path fill-rule="evenodd" clip-rule="evenodd" d="M46.6658 12.2312C43.7031 12.9928 41.3074 15.0729 39.9561 18.0573C39.1958 19.7363 39.0569 20.4613 39.0569 22.7506C39.0569 25.0278 39.1974 25.7678 39.9396 27.4067C42.5525 33.1767 49.6699 35.3548 54.3177 31.807L55.7441 30.7182V31.8312V32.9438H59.2481H62.752V22.7506V12.5574H59.2481H55.7441V13.5293V14.5011L54.6436 13.6618C52.6687 12.1551 49.3062 11.5524 46.6658 12.2312ZM76.6479 12.4418C73.5574 13.3907 70.8642 15.7135 69.4954 18.6096C68.3821 20.9652 68.3388 24.3885 69.3922 26.7323C70.9206 30.1327 74.8491 32.9779 78.6187 33.414C80.6564 33.65 84.6594 32.9543 85.8848 32.1513L86.6328 31.6611L85.479 29.3291L84.325 26.9967L83.1741 27.408C81.5221 27.9985 80.3442 27.9393 78.7913 27.1875C76.9661 26.3039 76.1306 24.8972 76.1306 22.7073C76.1306 18.917 79.6982 16.6073 83.2566 18.0942L84.31 18.5345L85.4714 16.1871L86.6328 13.8402L85.9208 13.3741C84.8505 12.674 81.6199 11.9175 79.8065 11.9426C78.9235 11.9547 77.5022 12.1793 76.6479 12.4418ZM98.6773 12.3679C95.6079 13.1938 92.4696 15.9533 91.2165 18.9282C90.9582 19.5413 90.6635 20.9289 90.5616 22.0116C89.9937 28.0578 95.2642 33.4216 101.773 33.4216C104.242 33.4216 107.948 32.4536 108.223 31.7369C108.318 31.49 107.924 30.3143 107.349 29.1242L106.302 26.9607L104.888 27.4427C102.03 28.4165 99.2848 27.2066 98.2594 24.5217C96.6358 20.2705 100.944 16.3009 105.236 18.0942L106.289 18.5345L107.45 16.1871L108.612 13.8402L107.9 13.3741C105.935 12.0882 101.51 11.6053 98.6773 12.3679ZM1.27417 22.7506V32.9438H4.77809H8.282V22.7506V12.5574H4.77809H1.27417V22.7506ZM15.2898 15.265V17.9725H19.3913H23.4931L18.595 25.2865C15.9011 29.309 13.6971 32.6775 13.6971 32.7721C13.6971 32.8664 18.3558 32.9438 24.0496 32.9438H34.4021V30.2363V27.5287H29.9426C27.4898 27.5287 25.483 27.4548 25.483 27.3643C25.483 27.2739 27.6332 23.9792 30.2611 20.043C32.8891 16.1069 35.0392 12.8122 35.0392 12.7218C35.0392 12.6313 30.5956 12.5574 25.1645 12.5574H15.2898V15.265ZM114.037 22.7506V32.9438H117.54H121.044V22.7506V12.5574H117.54H114.037V22.7506ZM53.7718 18.6173C54.8927 19.3009 56.0439 21.3898 56.0557 22.7627C56.0675 24.114 54.736 26.3109 53.5195 26.9477C51.3034 28.1078 48.3579 27.4229 47.1487 25.4665C46.2813 24.0627 46.2797 21.4408 47.1455 20.0399C48.3891 18.028 51.6551 17.3269 53.7718 18.6173Z" fill="#004AAD"/>
<circle cx="4.45953" cy="4.9342" r="4.45953" fill="#5CE1E6"/>
<circle cx="117.54" cy="4.9342" r="4.45953" fill="#5CE1E6"/>
</svg>
