<svg width="460" height="337" viewBox="0 0 460 337" fill="none" xmlns="http://www.w3.org/2000/svg">
<rect width="460" height="337" rx="8" fill="url(#paint0_linear_77_301)"/>
<path d="M50.5 37L50.5 298" stroke="white" stroke-width="2" stroke-linecap="round"/>
<path d="M42 91.5C42 86.8056 45.8056 83 50.5 83C55.1944 83 59 86.8056 59 91.5C59 96.1944 55.1944 100 50.5 100C45.8056 100 42 96.1944 42 91.5Z" fill="white"/>
<rect x="73" y="43" width="298" height="94" rx="10" fill="white"/>
<ellipse cx="111.5" cy="90" rx="25.5" ry="22" fill="#D9D9D9"/>
<path d="M111.5 85.7188C110.232 85.7188 109.016 86.2225 108.119 87.1191C107.222 88.0158 106.719 89.2319 106.719 90.5C106.719 91.7681 107.222 92.9842 108.119 93.8809C109.016 94.7775 110.232 95.2812 111.5 95.2812C112.768 95.2812 113.984 94.7775 114.881 93.8809C115.778 92.9842 116.281 91.7681 116.281 90.5C116.281 89.2319 115.778 88.0158 114.881 87.1191C113.984 86.2225 112.768 85.7188 111.5 85.7188ZM111.5 98.4688C109.387 98.4688 107.36 97.6292 105.865 96.1348C104.371 94.6403 103.531 92.6134 103.531 90.5C103.531 88.3866 104.371 86.3597 105.865 84.8652C107.36 83.3708 109.387 82.5312 111.5 82.5312C113.613 82.5312 115.64 83.3708 117.135 84.8652C118.629 86.3597 119.469 88.3866 119.469 90.5C119.469 92.6134 118.629 94.6403 117.135 96.1348C115.64 97.6292 113.613 98.4688 111.5 98.4688ZM111.5 78.5469C103.531 78.5469 96.7259 83.5034 93.9688 90.5C96.7259 97.4966 103.531 102.453 111.5 102.453C119.469 102.453 126.274 97.4966 129.031 90.5C126.274 83.5034 119.469 78.5469 111.5 78.5469Z" fill="#787878"/>
<path d="M146.011 76.5V64.8636H150.602C151.481 64.8636 152.231 65.0208 152.852 65.3352C153.477 65.6458 153.953 66.0871 154.278 66.6591C154.608 67.2273 154.773 67.8958 154.773 68.6648C154.773 69.4375 154.606 70.1023 154.273 70.6591C153.939 71.2121 153.456 71.6364 152.824 71.9318C152.195 72.2273 151.434 72.375 150.54 72.375H147.466V70.3977H150.142C150.612 70.3977 151.002 70.3333 151.312 70.2045C151.623 70.0758 151.854 69.8826 152.006 69.625C152.161 69.3674 152.239 69.0473 152.239 68.6648C152.239 68.2784 152.161 67.9527 152.006 67.6875C151.854 67.4223 151.621 67.2216 151.307 67.0852C150.996 66.9451 150.604 66.875 150.131 66.875H148.472V76.5H146.011ZM152.295 71.2045L155.188 76.5H152.472L149.642 71.2045H152.295ZM160.303 76.6705C159.405 76.6705 158.632 76.4886 157.984 76.125C157.34 75.7576 156.844 75.2386 156.496 74.5682C156.147 73.8939 155.973 73.0966 155.973 72.1761C155.973 71.2784 156.147 70.4905 156.496 69.8125C156.844 69.1345 157.335 68.6061 157.967 68.2273C158.604 67.8485 159.35 67.6591 160.206 67.6591C160.782 67.6591 161.318 67.7519 161.814 67.9375C162.314 68.1193 162.75 68.3939 163.121 68.7614C163.496 69.1288 163.787 69.5909 163.996 70.1477C164.204 70.7008 164.308 71.3485 164.308 72.0909V72.7557H156.939V71.2557H162.03C162.03 70.9072 161.954 70.5985 161.803 70.3295C161.651 70.0606 161.441 69.8504 161.172 69.6989C160.907 69.5436 160.598 69.4659 160.246 69.4659C159.878 69.4659 159.553 69.5511 159.268 69.7216C158.988 69.8883 158.768 70.1136 158.609 70.3977C158.45 70.678 158.369 70.9905 158.365 71.3352V72.7614C158.365 73.1932 158.445 73.5663 158.604 73.8807C158.767 74.1951 158.996 74.4375 159.291 74.608C159.587 74.7784 159.937 74.8636 160.342 74.8636C160.611 74.8636 160.857 74.8258 161.081 74.75C161.304 74.6742 161.496 74.5606 161.655 74.4091C161.814 74.2576 161.935 74.072 162.018 73.8523L164.257 74C164.143 74.5379 163.911 75.0076 163.558 75.4091C163.21 75.8068 162.759 76.1174 162.206 76.3409C161.657 76.5606 161.022 76.6705 160.303 76.6705ZM170.581 67.7727V69.5909H165.195V67.7727H170.581ZM166.428 76.5V67.142C166.428 66.5095 166.551 65.9848 166.797 65.5682C167.047 65.1515 167.388 64.839 167.82 64.6307C168.251 64.4223 168.742 64.3182 169.291 64.3182C169.662 64.3182 170.001 64.3466 170.308 64.4034C170.619 64.4602 170.85 64.5114 171.001 64.5568L170.57 66.375C170.475 66.3447 170.357 66.3163 170.217 66.2898C170.081 66.2633 169.941 66.25 169.797 66.25C169.441 66.25 169.193 66.3333 169.053 66.5C168.912 66.6629 168.842 66.892 168.842 67.1875V76.5H166.428ZM175.724 76.6705C174.827 76.6705 174.054 76.4886 173.406 76.125C172.762 75.7576 172.266 75.2386 171.918 74.5682C171.569 73.8939 171.395 73.0966 171.395 72.1761C171.395 71.2784 171.569 70.4905 171.918 69.8125C172.266 69.1345 172.757 68.6061 173.389 68.2273C174.026 67.8485 174.772 67.6591 175.628 67.6591C176.204 67.6591 176.74 67.7519 177.236 67.9375C177.736 68.1193 178.171 68.3939 178.543 68.7614C178.918 69.1288 179.209 69.5909 179.418 70.1477C179.626 70.7008 179.73 71.3485 179.73 72.0909V72.7557H172.361V71.2557H177.452C177.452 70.9072 177.376 70.5985 177.224 70.3295C177.073 70.0606 176.863 69.8504 176.594 69.6989C176.329 69.5436 176.02 69.4659 175.668 69.4659C175.3 69.4659 174.974 69.5511 174.69 69.7216C174.41 69.8883 174.19 70.1136 174.031 70.3977C173.872 70.678 173.791 70.9905 173.787 71.3352V72.7614C173.787 73.1932 173.866 73.5663 174.026 73.8807C174.188 74.1951 174.418 74.4375 174.713 74.608C175.009 74.7784 175.359 74.8636 175.764 74.8636C176.033 74.8636 176.279 74.8258 176.503 74.75C176.726 74.6742 176.918 74.5606 177.077 74.4091C177.236 74.2576 177.357 74.072 177.44 73.8523L179.679 74C179.565 74.5379 179.332 75.0076 178.98 75.4091C178.632 75.8068 178.181 76.1174 177.628 76.3409C177.079 76.5606 176.444 76.6705 175.724 76.6705ZM181.31 76.5V67.7727H183.656V69.2955H183.747C183.906 68.7538 184.173 68.3447 184.548 68.0682C184.923 67.7879 185.355 67.6477 185.844 67.6477C185.965 67.6477 186.096 67.6553 186.236 67.6705C186.376 67.6856 186.499 67.7064 186.605 67.733V69.8807C186.491 69.8466 186.334 69.8163 186.134 69.7898C185.933 69.7633 185.749 69.75 185.582 69.75C185.226 69.75 184.908 69.8277 184.628 69.983C184.351 70.1345 184.132 70.3466 183.969 70.6193C183.81 70.892 183.73 71.2064 183.73 71.5625V76.5H181.31ZM191.428 76.6705C190.53 76.6705 189.757 76.4886 189.109 76.125C188.465 75.7576 187.969 75.2386 187.621 74.5682C187.272 73.8939 187.098 73.0966 187.098 72.1761C187.098 71.2784 187.272 70.4905 187.621 69.8125C187.969 69.1345 188.46 68.6061 189.092 68.2273C189.729 67.8485 190.475 67.6591 191.331 67.6591C191.907 67.6591 192.443 67.7519 192.939 67.9375C193.439 68.1193 193.875 68.3939 194.246 68.7614C194.621 69.1288 194.912 69.5909 195.121 70.1477C195.329 70.7008 195.433 71.3485 195.433 72.0909V72.7557H188.064V71.2557H193.155C193.155 70.9072 193.079 70.5985 192.928 70.3295C192.776 70.0606 192.566 69.8504 192.297 69.6989C192.032 69.5436 191.723 69.4659 191.371 69.4659C191.003 69.4659 190.678 69.5511 190.393 69.7216C190.113 69.8883 189.893 70.1136 189.734 70.3977C189.575 70.678 189.494 70.9905 189.49 71.3352V72.7614C189.49 73.1932 189.57 73.5663 189.729 73.8807C189.892 74.1951 190.121 74.4375 190.416 74.608C190.712 74.7784 191.062 74.8636 191.467 74.8636C191.736 74.8636 191.982 74.8258 192.206 74.75C192.429 74.6742 192.621 74.5606 192.78 74.4091C192.939 74.2576 193.06 74.072 193.143 73.8523L195.382 74C195.268 74.5379 195.036 75.0076 194.683 75.4091C194.335 75.8068 193.884 76.1174 193.331 76.3409C192.782 76.5606 192.147 76.6705 191.428 76.6705ZM192.416 66.7273L191.274 65.3409L190.132 66.7273H188.07V66.6477L190.371 64.1477H192.172L194.479 66.6477V66.7273H192.416ZM199.433 71.4545V76.5H197.013V67.7727H199.32V69.3125H199.422C199.615 68.8049 199.939 68.4034 200.393 68.108C200.848 67.8087 201.399 67.6591 202.047 67.6591C202.653 67.6591 203.181 67.7917 203.632 68.0568C204.083 68.322 204.433 68.7008 204.683 69.1932C204.933 69.6818 205.058 70.2652 205.058 70.9432V76.5H202.638V71.375C202.642 70.8409 202.505 70.4242 202.229 70.125C201.952 69.822 201.571 69.6705 201.087 69.6705C200.761 69.6705 200.473 69.7405 200.223 69.8807C199.977 70.0208 199.784 70.2254 199.643 70.4943C199.507 70.7595 199.437 71.0795 199.433 71.4545ZM210.909 76.6705C210.015 76.6705 209.246 76.4811 208.602 76.1023C207.962 75.7197 207.47 75.1894 207.125 74.5114C206.784 73.8333 206.614 73.053 206.614 72.1705C206.614 71.2765 206.786 70.4924 207.131 69.8182C207.479 69.1402 207.973 68.6117 208.614 68.233C209.254 67.8504 210.015 67.6591 210.898 67.6591C211.659 67.6591 212.326 67.7973 212.898 68.0739C213.47 68.3504 213.922 68.7386 214.256 69.2386C214.589 69.7386 214.773 70.3258 214.807 71H212.523C212.458 70.5644 212.288 70.214 212.011 69.9489C211.739 69.6799 211.381 69.5455 210.938 69.5455C210.562 69.5455 210.235 69.6477 209.955 69.8523C209.678 70.053 209.462 70.3466 209.307 70.733C209.152 71.1193 209.074 71.5871 209.074 72.1364C209.074 72.6932 209.15 73.1667 209.301 73.5568C209.456 73.947 209.674 74.2443 209.955 74.4489C210.235 74.6534 210.562 74.7557 210.938 74.7557C211.214 74.7557 211.462 74.6989 211.682 74.5852C211.905 74.4716 212.089 74.3068 212.233 74.0909C212.381 73.8712 212.477 73.608 212.523 73.3011H214.807C214.769 73.9678 214.587 74.5549 214.261 75.0625C213.939 75.5663 213.494 75.9602 212.926 76.2443C212.358 76.5284 211.686 76.6705 210.909 76.6705ZM216.357 76.5V67.7727H218.777V76.5H216.357ZM217.572 66.6477C217.213 66.6477 216.904 66.5284 216.646 66.2898C216.393 66.0473 216.266 65.7576 216.266 65.4205C216.266 65.0871 216.393 64.8011 216.646 64.5625C216.904 64.3201 217.213 64.1989 217.572 64.1989C217.932 64.1989 218.239 64.3201 218.493 64.5625C218.75 64.8011 218.879 65.0871 218.879 65.4205C218.879 65.7576 218.75 66.0473 218.493 66.2898C218.239 66.5284 217.932 66.6477 217.572 66.6477ZM223.205 76.6648C222.648 76.6648 222.152 76.5682 221.716 76.375C221.28 76.178 220.936 75.8883 220.682 75.5057C220.432 75.1193 220.307 74.6383 220.307 74.0625C220.307 73.5777 220.396 73.1705 220.574 72.8409C220.752 72.5114 220.994 72.2462 221.301 72.0455C221.608 71.8447 221.956 71.6932 222.347 71.5909C222.741 71.4886 223.153 71.4167 223.585 71.375C224.093 71.322 224.502 71.2727 224.812 71.2273C225.123 71.178 225.348 71.1061 225.489 71.0114C225.629 70.9167 225.699 70.7765 225.699 70.5909V70.5568C225.699 70.197 225.585 69.9186 225.358 69.7216C225.134 69.5246 224.816 69.4261 224.403 69.4261C223.968 69.4261 223.621 69.5227 223.364 69.7159C223.106 69.9053 222.936 70.1439 222.852 70.4318L220.614 70.25C220.727 69.7197 220.951 69.2614 221.284 68.875C221.617 68.4848 222.047 68.1856 222.574 67.9773C223.104 67.7652 223.718 67.6591 224.415 67.6591C224.9 67.6591 225.364 67.7159 225.807 67.8295C226.254 67.9432 226.65 68.1193 226.994 68.358C227.343 68.5966 227.617 68.9034 227.818 69.2784C228.019 69.6496 228.119 70.0947 228.119 70.6136V76.5H225.824V75.2898H225.756C225.616 75.5625 225.428 75.803 225.193 76.0114C224.958 76.2159 224.676 76.3769 224.347 76.4943C224.017 76.608 223.636 76.6648 223.205 76.6648ZM223.898 74.9943C224.254 74.9943 224.568 74.9242 224.841 74.7841C225.114 74.6402 225.328 74.447 225.483 74.2045C225.638 73.9621 225.716 73.6875 225.716 73.3807V72.4545C225.64 72.5038 225.536 72.5492 225.403 72.5909C225.275 72.6288 225.129 72.6648 224.966 72.6989C224.803 72.7292 224.64 72.7576 224.477 72.7841C224.314 72.8068 224.167 72.8277 224.034 72.8466C223.75 72.8883 223.502 72.9545 223.29 73.0455C223.078 73.1364 222.913 73.2595 222.795 73.4148C222.678 73.5663 222.619 73.7557 222.619 73.983C222.619 74.3125 222.739 74.5644 222.977 74.7386C223.22 74.9091 223.527 74.9943 223.898 74.9943ZM241.837 67.7727L238.786 76.5H236.058L233.007 67.7727H235.564L237.376 74.017H237.467L239.274 67.7727H241.837ZM243.075 76.5V67.7727H245.496V76.5H243.075ZM244.291 66.6477C243.931 66.6477 243.623 66.5284 243.365 66.2898C243.111 66.0473 242.984 65.7576 242.984 65.4205C242.984 65.0871 243.111 64.8011 243.365 64.5625C243.623 64.3201 243.931 64.1989 244.291 64.1989C244.651 64.1989 244.958 64.3201 245.212 64.5625C245.469 64.8011 245.598 65.0871 245.598 65.4205C245.598 65.7576 245.469 66.0473 245.212 66.2898C244.958 66.5284 244.651 66.6477 244.291 66.6477ZM254.696 70.2614L252.48 70.3977C252.442 70.2083 252.361 70.0379 252.236 69.8864C252.111 69.7311 251.946 69.608 251.741 69.517C251.541 69.4223 251.3 69.375 251.02 69.375C250.645 69.375 250.329 69.4545 250.071 69.6136C249.813 69.7689 249.685 69.9773 249.685 70.2386C249.685 70.447 249.768 70.6231 249.935 70.767C250.101 70.911 250.387 71.0265 250.793 71.1136L252.372 71.4318C253.221 71.6061 253.853 71.8864 254.27 72.2727C254.687 72.6591 254.895 73.1667 254.895 73.7955C254.895 74.3674 254.726 74.8693 254.389 75.3011C254.056 75.733 253.598 76.0701 253.014 76.3125C252.435 76.5511 251.766 76.6705 251.009 76.6705C249.853 76.6705 248.933 76.4299 248.247 75.9489C247.565 75.464 247.166 74.8049 247.048 73.9716L249.429 73.8466C249.501 74.1989 249.675 74.4678 249.952 74.6534C250.228 74.8352 250.582 74.9261 251.014 74.9261C251.438 74.9261 251.779 74.8447 252.037 74.6818C252.298 74.5152 252.431 74.3011 252.435 74.0398C252.431 73.8201 252.338 73.6402 252.156 73.5C251.974 73.3561 251.694 73.2462 251.315 73.1705L249.804 72.8693C248.952 72.6989 248.317 72.4034 247.901 71.983C247.488 71.5625 247.281 71.0265 247.281 70.375C247.281 69.8144 247.433 69.3314 247.736 68.9261C248.043 68.5208 248.473 68.2083 249.026 67.9886C249.582 67.7689 250.234 67.6591 250.98 67.6591C252.082 67.6591 252.95 67.892 253.582 68.358C254.219 68.8239 254.59 69.4583 254.696 70.2614ZM262.016 72.7841V67.7727H264.436V76.5H262.112V74.9148H262.021C261.824 75.4261 261.497 75.8371 261.038 76.1477C260.584 76.4583 260.029 76.6136 259.374 76.6136C258.79 76.6136 258.277 76.4811 257.834 76.2159C257.391 75.9508 257.044 75.5739 256.794 75.0852C256.548 74.5966 256.423 74.0114 256.419 73.3295V67.7727H258.839V72.8977C258.843 73.4129 258.982 73.8201 259.254 74.1193C259.527 74.4186 259.893 74.5682 260.351 74.5682C260.643 74.5682 260.915 74.5019 261.169 74.3693C261.423 74.233 261.627 74.0322 261.783 73.767C261.942 73.5019 262.019 73.1742 262.016 72.7841ZM268.861 76.6648C268.304 76.6648 267.808 76.5682 267.372 76.375C266.937 76.178 266.592 75.8883 266.338 75.5057C266.088 75.1193 265.963 74.6383 265.963 74.0625C265.963 73.5777 266.052 73.1705 266.23 72.8409C266.408 72.5114 266.651 72.2462 266.957 72.0455C267.264 71.8447 267.613 71.6932 268.003 71.5909C268.397 71.4886 268.81 71.4167 269.241 71.375C269.749 71.322 270.158 71.2727 270.469 71.2273C270.779 71.178 271.005 71.1061 271.145 71.0114C271.285 70.9167 271.355 70.7765 271.355 70.5909V70.5568C271.355 70.197 271.241 69.9186 271.014 69.7216C270.791 69.5246 270.473 69.4261 270.06 69.4261C269.624 69.4261 269.277 69.5227 269.02 69.7159C268.762 69.9053 268.592 70.1439 268.509 70.4318L266.27 70.25C266.384 69.7197 266.607 69.2614 266.94 68.875C267.274 68.4848 267.704 68.1856 268.23 67.9773C268.76 67.7652 269.374 67.6591 270.071 67.6591C270.556 67.6591 271.02 67.7159 271.463 67.8295C271.91 67.9432 272.306 68.1193 272.651 68.358C272.999 68.5966 273.274 68.9034 273.474 69.2784C273.675 69.6496 273.776 70.0947 273.776 70.6136V76.5H271.48V75.2898H271.412C271.272 75.5625 271.084 75.803 270.849 76.0114C270.615 76.2159 270.332 76.3769 270.003 76.4943C269.673 76.608 269.293 76.6648 268.861 76.6648ZM269.554 74.9943C269.91 74.9943 270.224 74.9242 270.497 74.7841C270.77 74.6402 270.984 74.447 271.139 74.2045C271.295 73.9621 271.372 73.6875 271.372 73.3807V72.4545C271.296 72.5038 271.192 72.5492 271.06 72.5909C270.931 72.6288 270.785 72.6648 270.622 72.6989C270.459 72.7292 270.296 72.7576 270.134 72.7841C269.971 72.8068 269.823 72.8277 269.69 72.8466C269.406 72.8883 269.158 72.9545 268.946 73.0455C268.734 73.1364 268.569 73.2595 268.452 73.4148C268.334 73.5663 268.276 73.7557 268.276 73.983C268.276 74.3125 268.395 74.5644 268.634 74.7386C268.876 74.9091 269.183 74.9943 269.554 74.9943ZM278.074 64.8636V76.5H275.653V64.8636H278.074ZM280.013 76.5V67.7727H282.433V76.5H280.013ZM281.229 66.6477C280.869 66.6477 280.56 66.5284 280.303 66.2898C280.049 66.0473 279.922 65.7576 279.922 65.4205C279.922 65.0871 280.049 64.8011 280.303 64.5625C280.56 64.3201 280.869 64.1989 281.229 64.1989C281.589 64.1989 281.895 64.3201 282.149 64.5625C282.407 64.8011 282.536 65.0871 282.536 65.4205C282.536 65.7576 282.407 66.0473 282.149 66.2898C281.895 66.5284 281.589 66.6477 281.229 66.6477ZM284.327 76.5V75.0568L288.599 69.767V69.7045H284.474V67.7727H291.514V69.3466L287.503 74.5057V74.5682H291.662V76.5H284.327ZM296.001 76.6648C295.445 76.6648 294.948 76.5682 294.513 76.375C294.077 76.178 293.732 75.8883 293.479 75.5057C293.229 75.1193 293.104 74.6383 293.104 74.0625C293.104 73.5777 293.193 73.1705 293.371 72.8409C293.549 72.5114 293.791 72.2462 294.098 72.0455C294.405 71.8447 294.753 71.6932 295.143 71.5909C295.537 71.4886 295.95 71.4167 296.382 71.375C296.89 71.322 297.299 71.2727 297.609 71.2273C297.92 71.178 298.145 71.1061 298.286 71.0114C298.426 70.9167 298.496 70.7765 298.496 70.5909V70.5568C298.496 70.197 298.382 69.9186 298.155 69.7216C297.931 69.5246 297.613 69.4261 297.2 69.4261C296.765 69.4261 296.418 69.5227 296.161 69.7159C295.903 69.9053 295.732 70.1439 295.649 70.4318L293.411 70.25C293.524 69.7197 293.748 69.2614 294.081 68.875C294.414 68.4848 294.844 68.1856 295.371 67.9773C295.901 67.7652 296.515 67.6591 297.212 67.6591C297.696 67.6591 298.161 67.7159 298.604 67.8295C299.051 67.9432 299.446 68.1193 299.791 68.358C300.14 68.5966 300.414 68.9034 300.615 69.2784C300.816 69.6496 300.916 70.0947 300.916 70.6136V76.5H298.621V75.2898H298.553C298.412 75.5625 298.225 75.803 297.99 76.0114C297.755 76.2159 297.473 76.3769 297.143 76.4943C296.814 76.608 296.433 76.6648 296.001 76.6648ZM296.695 74.9943C297.051 74.9943 297.365 74.9242 297.638 74.7841C297.911 74.6402 298.125 74.447 298.28 74.2045C298.435 73.9621 298.513 73.6875 298.513 73.3807V72.4545C298.437 72.5038 298.333 72.5492 298.2 72.5909C298.071 72.6288 297.926 72.6648 297.763 72.6989C297.6 72.7292 297.437 72.7576 297.274 72.7841C297.111 72.8068 296.964 72.8277 296.831 72.8466C296.547 72.8883 296.299 72.9545 296.087 73.0455C295.875 73.1364 295.71 73.2595 295.592 73.4148C295.475 73.5663 295.416 73.7557 295.416 73.983C295.416 74.3125 295.536 74.5644 295.774 74.7386C296.017 74.9091 296.323 74.9943 296.695 74.9943ZM306.01 76.642C305.347 76.642 304.747 76.4716 304.209 76.1307C303.675 75.786 303.25 75.2803 302.936 74.6136C302.625 73.9432 302.47 73.1212 302.47 72.1477C302.47 71.1477 302.631 70.3163 302.953 69.6534C303.275 68.9867 303.703 68.4886 304.237 68.1591C304.775 67.8258 305.364 67.6591 306.004 67.6591C306.493 67.6591 306.9 67.7424 307.226 67.9091C307.555 68.072 307.821 68.2765 308.021 68.5227C308.226 68.7652 308.381 69.0038 308.487 69.2386H308.561V64.8636H310.976V76.5H308.589V75.1023H308.487C308.374 75.3447 308.213 75.5852 308.004 75.8239C307.8 76.0587 307.533 76.2538 307.203 76.4091C306.877 76.5644 306.48 76.642 306.01 76.642ZM306.777 74.7159C307.167 74.7159 307.497 74.6098 307.766 74.3977C308.038 74.1818 308.247 73.8807 308.391 73.4943C308.538 73.108 308.612 72.6553 308.612 72.1364C308.612 71.6174 308.54 71.1667 308.396 70.7841C308.252 70.4015 308.044 70.1061 307.771 69.8977C307.499 69.6894 307.167 69.5852 306.777 69.5852C306.379 69.5852 306.044 69.6932 305.771 69.9091C305.499 70.125 305.292 70.4242 305.152 70.8068C305.012 71.1894 304.942 71.6326 304.942 72.1364C304.942 72.6439 305.012 73.0928 305.152 73.483C305.296 73.8693 305.502 74.1723 305.771 74.392C306.044 74.608 306.379 74.7159 306.777 74.7159ZM315.455 76.6648C314.898 76.6648 314.402 76.5682 313.966 76.375C313.53 76.178 313.186 75.8883 312.932 75.5057C312.682 75.1193 312.557 74.6383 312.557 74.0625C312.557 73.5777 312.646 73.1705 312.824 72.8409C313.002 72.5114 313.244 72.2462 313.551 72.0455C313.858 71.8447 314.206 71.6932 314.597 71.5909C314.991 71.4886 315.403 71.4167 315.835 71.375C316.343 71.322 316.752 71.2727 317.062 71.2273C317.373 71.178 317.598 71.1061 317.739 71.0114C317.879 70.9167 317.949 70.7765 317.949 70.5909V70.5568C317.949 70.197 317.835 69.9186 317.608 69.7216C317.384 69.5246 317.066 69.4261 316.653 69.4261C316.218 69.4261 315.871 69.5227 315.614 69.7159C315.356 69.9053 315.186 70.1439 315.102 70.4318L312.864 70.25C312.977 69.7197 313.201 69.2614 313.534 68.875C313.867 68.4848 314.297 68.1856 314.824 67.9773C315.354 67.7652 315.968 67.6591 316.665 67.6591C317.15 67.6591 317.614 67.7159 318.057 67.8295C318.504 67.9432 318.9 68.1193 319.244 68.358C319.593 68.5966 319.867 68.9034 320.068 69.2784C320.269 69.6496 320.369 70.0947 320.369 70.6136V76.5H318.074V75.2898H318.006C317.866 75.5625 317.678 75.803 317.443 76.0114C317.208 76.2159 316.926 76.3769 316.597 76.4943C316.267 76.608 315.886 76.6648 315.455 76.6648ZM316.148 74.9943C316.504 74.9943 316.818 74.9242 317.091 74.7841C317.364 74.6402 317.578 74.447 317.733 74.2045C317.888 73.9621 317.966 73.6875 317.966 73.3807V72.4545C317.89 72.5038 317.786 72.5492 317.653 72.5909C317.525 72.6288 317.379 72.6648 317.216 72.6989C317.053 72.7292 316.89 72.7576 316.727 72.7841C316.564 72.8068 316.417 72.8277 316.284 72.8466C316 72.8883 315.752 72.9545 315.54 73.0455C315.328 73.1364 315.163 73.2595 315.045 73.4148C314.928 73.5663 314.869 73.7557 314.869 73.983C314.869 74.3125 314.989 74.5644 315.227 74.7386C315.47 74.9091 315.777 74.9943 316.148 74.9943Z" fill="black"/>
<path d="M148.082 98.5L145.298 88.3182H146.551L148.679 96.6108H148.778L150.946 88.3182H152.338L154.506 96.6108H154.605L156.733 88.3182H157.986L155.202 98.5H153.929L151.682 90.3864H151.602L149.355 98.5H148.082ZM159.363 98.5V90.8636H160.536V98.5H159.363ZM159.96 89.5909C159.731 89.5909 159.534 89.513 159.368 89.3572C159.205 89.2015 159.124 89.0142 159.124 88.7955C159.124 88.5767 159.205 88.3894 159.368 88.2337C159.534 88.0779 159.731 88 159.96 88C160.188 88 160.384 88.0779 160.546 88.2337C160.712 88.3894 160.795 88.5767 160.795 88.7955C160.795 89.0142 160.712 89.2015 160.546 89.3572C160.384 89.513 160.188 89.5909 159.96 89.5909ZM163.858 88.3182V98.5H162.685V88.3182H163.858ZM171.417 92.5739L170.363 92.8722C170.296 92.6965 170.199 92.5258 170.069 92.3601C169.943 92.1911 169.771 92.0518 169.552 91.9425C169.333 91.8331 169.053 91.7784 168.712 91.7784C168.245 91.7784 167.855 91.8861 167.544 92.1016C167.235 92.3137 167.081 92.5838 167.081 92.9119C167.081 93.2036 167.187 93.4339 167.4 93.603C167.612 93.772 167.943 93.9129 168.394 94.0256L169.527 94.304C170.21 94.4697 170.719 94.7232 171.054 95.0646C171.388 95.4027 171.556 95.8385 171.556 96.3722C171.556 96.8097 171.43 97.2008 171.178 97.5455C170.929 97.8902 170.581 98.1619 170.134 98.3608C169.686 98.5597 169.166 98.6591 168.573 98.6591C167.794 98.6591 167.149 98.4901 166.639 98.152C166.128 97.8139 165.805 97.3201 165.669 96.6705L166.783 96.392C166.889 96.803 167.09 97.1113 167.385 97.3168C167.683 97.5223 168.072 97.625 168.553 97.625C169.1 97.625 169.534 97.509 169.855 97.277C170.18 97.0417 170.343 96.7599 170.343 96.4318C170.343 96.1667 170.25 95.9446 170.064 95.7656C169.879 95.5833 169.594 95.4474 169.209 95.358L167.936 95.0597C167.237 94.8939 166.723 94.6371 166.395 94.2891C166.07 93.9377 165.908 93.4986 165.908 92.9716C165.908 92.5407 166.029 92.1596 166.271 91.8281C166.516 91.4967 166.849 91.2365 167.27 91.0476C167.694 90.8587 168.175 90.7642 168.712 90.7642C169.468 90.7642 170.061 90.9299 170.492 91.2614C170.926 91.5928 171.234 92.0303 171.417 92.5739ZM176.424 98.6591C175.735 98.6591 175.13 98.495 174.61 98.1669C174.093 97.8388 173.688 97.3797 173.396 96.7898C173.108 96.1998 172.964 95.5104 172.964 94.7216C172.964 93.9261 173.108 93.2318 173.396 92.6385C173.688 92.0452 174.093 91.5845 174.61 91.2564C175.13 90.9283 175.735 90.7642 176.424 90.7642C177.114 90.7642 177.717 90.9283 178.234 91.2564C178.754 91.5845 179.159 92.0452 179.447 92.6385C179.739 93.2318 179.884 93.9261 179.884 94.7216C179.884 95.5104 179.739 96.1998 179.447 96.7898C179.159 97.3797 178.754 97.8388 178.234 98.1669C177.717 98.495 177.114 98.6591 176.424 98.6591ZM176.424 97.6051C176.948 97.6051 177.379 97.4709 177.717 97.2024C178.055 96.9339 178.305 96.581 178.468 96.1435C178.63 95.706 178.711 95.232 178.711 94.7216C178.711 94.2112 178.63 93.7356 178.468 93.2947C178.305 92.8539 178.055 92.4976 177.717 92.2259C177.379 91.9541 176.948 91.8182 176.424 91.8182C175.901 91.8182 175.47 91.9541 175.132 92.2259C174.794 92.4976 174.543 92.8539 174.381 93.2947C174.218 93.7356 174.137 94.2112 174.137 94.7216C174.137 95.232 174.218 95.706 174.381 96.1435C174.543 96.581 174.794 96.9339 175.132 97.2024C175.47 97.4709 175.901 97.6051 176.424 97.6051ZM182.849 93.9062V98.5H181.675V90.8636H182.809V92.0568H182.908C183.087 91.669 183.359 91.3575 183.724 91.1222C184.088 90.8835 184.559 90.7642 185.136 90.7642C185.653 90.7642 186.105 90.8703 186.493 91.0824C186.881 91.2912 187.182 91.6094 187.398 92.0369C187.613 92.4612 187.721 92.9981 187.721 93.6477V98.5H186.548V93.7273C186.548 93.1274 186.392 92.66 186.08 92.3253C185.769 91.9872 185.341 91.8182 184.798 91.8182C184.423 91.8182 184.088 91.8994 183.793 92.0618C183.502 92.2242 183.271 92.4612 183.102 92.7727C182.933 93.0843 182.849 93.4621 182.849 93.9062ZM200.922 91.5C200.812 91.1652 200.668 90.8653 200.489 90.6001C200.314 90.3317 200.103 90.103 199.858 89.9141C199.616 89.7251 199.341 89.581 199.032 89.4815C198.724 89.3821 198.386 89.3324 198.018 89.3324C197.415 89.3324 196.867 89.4882 196.373 89.7997C195.879 90.1113 195.486 90.5703 195.194 91.1768C194.903 91.7834 194.757 92.5275 194.757 93.4091C194.757 94.2907 194.904 95.0348 195.199 95.6413C195.494 96.2479 195.894 96.7069 196.398 97.0185C196.901 97.33 197.468 97.4858 198.098 97.4858C198.681 97.4858 199.195 97.3615 199.639 97.1129C200.086 96.861 200.434 96.5064 200.683 96.049C200.935 95.5883 201.061 95.0464 201.061 94.4233L201.439 94.5028H198.376V93.4091H202.254V94.5028C202.254 95.3414 202.075 96.0705 201.717 96.6903C201.363 97.3101 200.872 97.7907 200.246 98.1321C199.622 98.4702 198.907 98.6392 198.098 98.6392C197.196 98.6392 196.404 98.4271 195.721 98.0028C195.042 97.5786 194.512 96.9754 194.131 96.1932C193.753 95.411 193.564 94.483 193.564 93.4091C193.564 92.6037 193.671 91.8795 193.887 91.2365C194.106 90.5902 194.414 90.04 194.812 89.5859C195.209 89.1319 195.68 88.7839 196.224 88.5419C196.767 88.3 197.365 88.179 198.018 88.179C198.555 88.179 199.056 88.2602 199.52 88.4226C199.987 88.5817 200.403 88.8087 200.768 89.1037C201.135 89.3954 201.442 89.745 201.687 90.1527C201.933 90.5571 202.102 91.0062 202.194 91.5H200.922ZM207.309 98.6591C206.62 98.6591 206.015 98.495 205.494 98.1669C204.977 97.8388 204.573 97.3797 204.281 96.7898C203.993 96.1998 203.849 95.5104 203.849 94.7216C203.849 93.9261 203.993 93.2318 204.281 92.6385C204.573 92.0452 204.977 91.5845 205.494 91.2564C206.015 90.9283 206.62 90.7642 207.309 90.7642C207.998 90.7642 208.602 90.9283 209.119 91.2564C209.639 91.5845 210.043 92.0452 210.332 92.6385C210.623 93.2318 210.769 93.9261 210.769 94.7216C210.769 95.5104 210.623 96.1998 210.332 96.7898C210.043 97.3797 209.639 97.8388 209.119 98.1669C208.602 98.495 207.998 98.6591 207.309 98.6591ZM207.309 97.6051C207.833 97.6051 208.263 97.4709 208.602 97.2024C208.94 96.9339 209.19 96.581 209.352 96.1435C209.515 95.706 209.596 95.232 209.596 94.7216C209.596 94.2112 209.515 93.7356 209.352 93.2947C209.19 92.8539 208.94 92.4976 208.602 92.2259C208.263 91.9541 207.833 91.8182 207.309 91.8182C206.785 91.8182 206.354 91.9541 206.016 92.2259C205.678 92.4976 205.428 92.8539 205.266 93.2947C205.103 93.7356 205.022 94.2112 205.022 94.7216C205.022 95.232 205.103 95.706 205.266 96.1435C205.428 96.581 205.678 96.9339 206.016 97.2024C206.354 97.4709 206.785 97.6051 207.309 97.6051ZM212.56 98.5V90.8636H213.694V92.0568H213.793C213.952 91.6491 214.209 91.3326 214.564 91.1072C214.918 90.8786 215.344 90.7642 215.841 90.7642C216.345 90.7642 216.765 90.8786 217.099 91.1072C217.437 91.3326 217.701 91.6491 217.89 92.0568H217.969C218.165 91.6624 218.458 91.3492 218.849 91.1172C219.24 90.8819 219.709 90.7642 220.256 90.7642C220.939 90.7642 221.497 90.978 221.932 91.4055C222.366 91.8298 222.583 92.491 222.583 93.3892V98.5H221.41V93.3892C221.41 92.8258 221.256 92.4231 220.947 92.1811C220.639 91.9392 220.276 91.8182 219.858 91.8182C219.322 91.8182 218.906 91.9806 218.611 92.3054C218.316 92.6269 218.168 93.0346 218.168 93.5284V98.5H216.975V93.2699C216.975 92.8357 216.834 92.486 216.552 92.2209C216.271 91.9524 215.908 91.8182 215.464 91.8182C215.159 91.8182 214.874 91.8994 214.608 92.0618C214.347 92.2242 214.135 92.4496 213.972 92.7379C213.813 93.023 213.733 93.3527 213.733 93.7273V98.5H212.56ZM227.93 98.6591C227.194 98.6591 226.559 98.4967 226.026 98.1719C225.495 97.8438 225.086 97.3864 224.798 96.7997C224.513 96.2098 224.37 95.5237 224.37 94.7415C224.37 93.9593 224.513 93.2699 224.798 92.6733C225.086 92.0734 225.487 91.6061 226.001 91.2713C226.518 90.9332 227.121 90.7642 227.811 90.7642C228.208 90.7642 228.601 90.8305 228.989 90.9631C229.377 91.0956 229.73 91.3111 230.048 91.6094C230.366 91.9044 230.619 92.2955 230.808 92.7827C230.997 93.2699 231.092 93.8698 231.092 94.5824V95.0795H225.205V94.0653H229.899C229.899 93.6345 229.812 93.25 229.64 92.9119C229.471 92.5739 229.229 92.3071 228.914 92.1115C228.603 91.916 228.235 91.8182 227.811 91.8182C227.343 91.8182 226.939 91.9342 226.597 92.1662C226.259 92.3949 225.999 92.6932 225.817 93.0611C225.635 93.429 225.544 93.8234 225.544 94.2443V94.9205C225.544 95.4972 225.643 95.986 225.842 96.3871C226.044 96.7848 226.324 97.0881 226.682 97.2969C227.04 97.5024 227.456 97.6051 227.93 97.6051C228.238 97.6051 228.517 97.562 228.765 97.4759C229.017 97.3864 229.234 97.2538 229.416 97.0781C229.599 96.8991 229.74 96.6771 229.839 96.4119L230.972 96.7301C230.853 97.1146 230.653 97.4527 230.371 97.7443C230.089 98.0327 229.741 98.258 229.327 98.4205C228.913 98.5795 228.447 98.6591 227.93 98.6591ZM238.286 92.5739L237.232 92.8722C237.165 92.6965 237.068 92.5258 236.938 92.3601C236.812 92.1911 236.64 92.0518 236.421 91.9425C236.203 91.8331 235.923 91.7784 235.581 91.7784C235.114 91.7784 234.724 91.8861 234.413 92.1016C234.105 92.3137 233.95 92.5838 233.95 92.9119C233.95 93.2036 234.057 93.4339 234.269 93.603C234.481 93.772 234.812 93.9129 235.263 94.0256L236.396 94.304C237.079 94.4697 237.588 94.7232 237.923 95.0646C238.258 95.4027 238.425 95.8385 238.425 96.3722C238.425 96.8097 238.299 97.2008 238.047 97.5455C237.798 97.8902 237.45 98.1619 237.003 98.3608C236.556 98.5597 236.035 98.6591 235.442 98.6591C234.663 98.6591 234.018 98.4901 233.508 98.152C232.998 97.8139 232.674 97.3201 232.539 96.6705L233.652 96.392C233.758 96.803 233.959 97.1113 234.254 97.3168C234.552 97.5223 234.941 97.625 235.422 97.625C235.969 97.625 236.403 97.509 236.725 97.277C237.049 97.0417 237.212 96.7599 237.212 96.4318C237.212 96.1667 237.119 95.9446 236.933 95.7656C236.748 95.5833 236.463 95.4474 236.078 95.358L234.806 95.0597C234.106 94.8939 233.593 94.6371 233.264 94.2891C232.94 93.9377 232.777 93.4986 232.777 92.9716C232.777 92.5407 232.898 92.1596 233.14 91.8281C233.385 91.4967 233.718 91.2365 234.139 91.0476C234.564 90.8587 235.044 90.7642 235.581 90.7642C236.337 90.7642 236.93 90.9299 237.361 91.2614C237.795 91.5928 238.103 92.0303 238.286 92.5739ZM250.373 90.8636L247.549 98.5H246.356L243.532 90.8636H244.805L246.913 96.9489H246.992L249.1 90.8636H250.373ZM251.922 98.5V90.8636H253.095V98.5H251.922ZM252.518 89.5909C252.289 89.5909 252.092 89.513 251.926 89.3572C251.764 89.2015 251.683 89.0142 251.683 88.7955C251.683 88.5767 251.764 88.3894 251.926 88.2337C252.092 88.0779 252.289 88 252.518 88C252.747 88 252.942 88.0779 253.105 88.2337C253.27 88.3894 253.353 88.5767 253.353 88.7955C253.353 89.0142 253.27 89.2015 253.105 89.3572C252.942 89.513 252.747 89.5909 252.518 89.5909ZM260.653 92.5739L259.599 92.8722C259.533 92.6965 259.435 92.5258 259.306 92.3601C259.18 92.1911 259.007 92.0518 258.789 91.9425C258.57 91.8331 258.29 91.7784 257.948 91.7784C257.481 91.7784 257.092 91.8861 256.78 92.1016C256.472 92.3137 256.318 92.5838 256.318 92.9119C256.318 93.2036 256.424 93.4339 256.636 93.603C256.848 93.772 257.179 93.9129 257.63 94.0256L258.764 94.304C259.446 94.4697 259.955 94.7232 260.29 95.0646C260.625 95.4027 260.792 95.8385 260.792 96.3722C260.792 96.8097 260.666 97.2008 260.414 97.5455C260.166 97.8902 259.818 98.1619 259.37 98.3608C258.923 98.5597 258.402 98.6591 257.809 98.6591C257.03 98.6591 256.386 98.4901 255.875 98.152C255.365 97.8139 255.042 97.3201 254.906 96.6705L256.019 96.392C256.125 96.803 256.326 97.1113 256.621 97.3168C256.919 97.5223 257.309 97.625 257.789 97.625C258.336 97.625 258.77 97.509 259.092 97.277C259.417 97.0417 259.579 96.7599 259.579 96.4318C259.579 96.1667 259.486 95.9446 259.301 95.7656C259.115 95.5833 258.83 95.4474 258.445 95.358L257.173 95.0597C256.473 94.8939 255.96 94.6371 255.632 94.2891C255.307 93.9377 255.144 93.4986 255.144 92.9716C255.144 92.5407 255.265 92.1596 255.507 91.8281C255.753 91.4967 256.086 91.2365 256.507 91.0476C256.931 90.8587 257.411 90.7642 257.948 90.7642C258.704 90.7642 259.297 90.9299 259.728 91.2614C260.162 91.5928 260.471 92.0303 260.653 92.5739ZM267.371 95.3778V90.8636H268.544V98.5H267.371V97.2074H267.291C267.112 97.5952 266.834 97.925 266.456 98.1967C266.078 98.4652 265.601 98.5994 265.024 98.5994C264.547 98.5994 264.123 98.495 263.751 98.2862C263.38 98.0741 263.089 97.7559 262.876 97.3317C262.664 96.9041 262.558 96.3655 262.558 95.7159V90.8636H263.732V95.6364C263.732 96.1932 263.887 96.6373 264.199 96.9688C264.514 97.3002 264.915 97.4659 265.402 97.4659C265.694 97.4659 265.99 97.3913 266.292 97.2422C266.597 97.093 266.852 96.8643 267.058 96.5561C267.266 96.2479 267.371 95.8551 267.371 95.3778ZM272.94 98.679C272.456 98.679 272.017 98.5878 271.623 98.4055C271.228 98.2199 270.915 97.9531 270.683 97.6051C270.451 97.2538 270.335 96.8295 270.335 96.3324C270.335 95.8949 270.421 95.5402 270.594 95.2685C270.766 94.9934 270.996 94.7779 271.285 94.6222C271.573 94.4664 271.891 94.3504 272.239 94.2741C272.59 94.1946 272.943 94.1316 273.298 94.0852C273.762 94.0256 274.138 93.9808 274.427 93.951C274.718 93.9179 274.93 93.8632 275.063 93.7869C275.199 93.7107 275.267 93.5781 275.267 93.3892V93.3494C275.267 92.8589 275.133 92.4777 274.864 92.206C274.599 91.9342 274.196 91.7983 273.656 91.7983C273.096 91.7983 272.657 91.9209 272.339 92.1662C272.02 92.4115 271.797 92.6733 271.667 92.9517L270.554 92.554C270.753 92.09 271.018 91.7287 271.349 91.4702C271.684 91.2083 272.049 91.026 272.443 90.9233C272.841 90.8172 273.232 90.7642 273.616 90.7642C273.862 90.7642 274.143 90.794 274.461 90.8537C274.783 90.91 275.093 91.0277 275.391 91.2067C275.693 91.3857 275.943 91.6558 276.142 92.017C276.341 92.3783 276.44 92.8622 276.44 93.4688V98.5H275.267V97.4659H275.207C275.128 97.6316 274.995 97.8089 274.809 97.9979C274.624 98.1868 274.377 98.3475 274.069 98.4801C273.76 98.6127 273.384 98.679 272.94 98.679ZM273.119 97.625C273.583 97.625 273.974 97.5339 274.292 97.3516C274.614 97.1693 274.856 96.9339 275.018 96.6456C275.184 96.3572 275.267 96.054 275.267 95.7358V94.6619C275.217 94.7216 275.108 94.7763 274.939 94.826C274.773 94.8724 274.581 94.9138 274.362 94.9503C274.147 94.9834 273.936 95.0133 273.731 95.0398C273.528 95.063 273.364 95.0829 273.238 95.0994C272.934 95.1392 272.648 95.2038 272.383 95.2933C272.122 95.3795 271.909 95.5104 271.747 95.6861C271.588 95.8584 271.508 96.0937 271.508 96.392C271.508 96.7997 271.659 97.108 271.961 97.3168C272.266 97.5223 272.652 97.625 273.119 97.625ZM279.755 88.3182V98.5H278.582V88.3182H279.755ZM281.904 98.5V90.8636H283.077V98.5H281.904ZM282.501 89.5909C282.272 89.5909 282.075 89.513 281.909 89.3572C281.747 89.2015 281.665 89.0142 281.665 88.7955C281.665 88.5767 281.747 88.3894 281.909 88.2337C282.075 88.0779 282.272 88 282.501 88C282.729 88 282.925 88.0779 283.087 88.2337C283.253 88.3894 283.336 88.5767 283.336 88.7955C283.336 89.0142 283.253 89.2015 283.087 89.3572C282.925 89.513 282.729 89.5909 282.501 89.5909ZM285.007 98.5V97.6051L289.343 92.0369V91.9574H285.147V90.8636H290.854V91.7983L286.638 97.3267V97.4062H290.993V98.5H285.007ZM295.684 98.6591C294.995 98.6591 294.39 98.495 293.869 98.1669C293.352 97.8388 292.948 97.3797 292.656 96.7898C292.368 96.1998 292.224 95.5104 292.224 94.7216C292.224 93.9261 292.368 93.2318 292.656 92.6385C292.948 92.0452 293.352 91.5845 293.869 91.2564C294.39 90.9283 294.995 90.7642 295.684 90.7642C296.373 90.7642 296.977 90.9283 297.494 91.2564C298.014 91.5845 298.418 92.0452 298.707 92.6385C298.998 93.2318 299.144 93.9261 299.144 94.7216C299.144 95.5104 298.998 96.1998 298.707 96.7898C298.418 97.3797 298.014 97.8388 297.494 98.1669C296.977 98.495 296.373 98.6591 295.684 98.6591ZM295.684 97.6051C296.208 97.6051 296.638 97.4709 296.977 97.2024C297.315 96.9339 297.565 96.581 297.727 96.1435C297.89 95.706 297.971 95.232 297.971 94.7216C297.971 94.2112 297.89 93.7356 297.727 93.2947C297.565 92.8539 297.315 92.4976 296.977 92.2259C296.638 91.9541 296.208 91.8182 295.684 91.8182C295.16 91.8182 294.729 91.9541 294.391 92.2259C294.053 92.4976 293.803 92.8539 293.641 93.2947C293.478 93.7356 293.397 94.2112 293.397 94.7216C293.397 95.232 293.478 95.706 293.641 96.1435C293.803 96.581 294.053 96.9339 294.391 97.2024C294.729 97.4709 295.16 97.6051 295.684 97.6051ZM305.748 95.3778V90.8636H306.921V98.5H305.748V97.2074H305.668C305.489 97.5952 305.211 97.925 304.833 98.1967C304.455 98.4652 303.978 98.5994 303.401 98.5994C302.924 98.5994 302.5 98.495 302.128 98.2862C301.757 98.0741 301.465 97.7559 301.253 97.3317C301.041 96.9041 300.935 96.3655 300.935 95.7159V90.8636H302.108V95.6364C302.108 96.1932 302.264 96.6373 302.576 96.9688C302.891 97.3002 303.292 97.4659 303.779 97.4659C304.071 97.4659 304.367 97.3913 304.669 97.2422C304.974 97.093 305.229 96.8643 305.434 96.5561C305.643 96.2479 305.748 95.8551 305.748 95.3778ZM315.255 98.679C314.771 98.679 314.332 98.5878 313.937 98.4055C313.543 98.2199 313.23 97.9531 312.998 97.6051C312.766 97.2538 312.65 96.8295 312.65 96.3324C312.65 95.8949 312.736 95.5402 312.908 95.2685C313.08 94.9934 313.311 94.7779 313.599 94.6222C313.887 94.4664 314.206 94.3504 314.554 94.2741C314.905 94.1946 315.258 94.1316 315.613 94.0852C316.077 94.0256 316.453 93.9808 316.741 93.951C317.033 93.9179 317.245 93.8632 317.377 93.7869C317.513 93.7107 317.581 93.5781 317.581 93.3892V93.3494C317.581 92.8589 317.447 92.4777 317.179 92.206C316.913 91.9342 316.511 91.7983 315.971 91.7983C315.41 91.7983 314.971 91.9209 314.653 92.1662C314.335 92.4115 314.111 92.6733 313.982 92.9517L312.868 92.554C313.067 92.09 313.332 91.7287 313.664 91.4702C313.998 91.2083 314.363 91.026 314.757 90.9233C315.155 90.8172 315.546 90.7642 315.931 90.7642C316.176 90.7642 316.458 90.794 316.776 90.8537C317.097 90.91 317.407 91.0277 317.706 91.2067C318.007 91.3857 318.257 91.6558 318.456 92.017C318.655 92.3783 318.755 92.8622 318.755 93.4688V98.5H317.581V97.4659H317.522C317.442 97.6316 317.31 97.8089 317.124 97.9979C316.938 98.1868 316.691 98.3475 316.383 98.4801C316.075 98.6127 315.699 98.679 315.255 98.679ZM315.434 97.625C315.898 97.625 316.289 97.5339 316.607 97.3516C316.928 97.1693 317.17 96.9339 317.333 96.6456C317.498 96.3572 317.581 96.054 317.581 95.7358V94.6619C317.532 94.7216 317.422 94.7763 317.253 94.826C317.087 94.8724 316.895 94.9138 316.676 94.9503C316.461 94.9834 316.251 95.0133 316.045 95.0398C315.843 95.063 315.679 95.0829 315.553 95.0994C315.248 95.1392 314.963 95.2038 314.698 95.2933C314.436 95.3795 314.224 95.5104 314.061 95.6861C313.902 95.8584 313.823 96.0937 313.823 96.392C313.823 96.7997 313.974 97.108 314.275 97.3168C314.58 97.5223 314.966 97.625 315.434 97.625ZM146.074 115.5V107.864H147.207V109.017H147.287C147.426 108.639 147.678 108.333 148.043 108.097C148.407 107.862 148.818 107.744 149.276 107.744C149.362 107.744 149.469 107.746 149.599 107.749C149.728 107.753 149.826 107.758 149.892 107.764V108.957C149.852 108.947 149.761 108.933 149.619 108.913C149.479 108.889 149.332 108.878 149.176 108.878C148.805 108.878 148.473 108.956 148.182 109.112C147.893 109.264 147.665 109.476 147.496 109.748C147.33 110.016 147.247 110.323 147.247 110.668V115.5H146.074ZM154.252 115.659C153.516 115.659 152.882 115.497 152.348 115.172C151.818 114.844 151.408 114.386 151.12 113.8C150.835 113.21 150.692 112.524 150.692 111.741C150.692 110.959 150.835 110.27 151.12 109.673C151.408 109.073 151.809 108.606 152.323 108.271C152.84 107.933 153.443 107.764 154.133 107.764C154.531 107.764 154.923 107.83 155.311 107.963C155.699 108.096 156.052 108.311 156.37 108.609C156.688 108.904 156.942 109.295 157.131 109.783C157.32 110.27 157.414 110.87 157.414 111.582V112.08H151.528V111.065H156.221C156.221 110.634 156.135 110.25 155.962 109.912C155.793 109.574 155.551 109.307 155.237 109.112C154.925 108.916 154.557 108.818 154.133 108.818C153.665 108.818 153.261 108.934 152.92 109.166C152.582 109.395 152.321 109.693 152.139 110.061C151.957 110.429 151.866 110.823 151.866 111.244V111.92C151.866 112.497 151.965 112.986 152.164 113.387C152.366 113.785 152.646 114.088 153.004 114.297C153.362 114.502 153.778 114.605 154.252 114.605C154.56 114.605 154.839 114.562 155.087 114.476C155.339 114.386 155.556 114.254 155.739 114.078C155.921 113.899 156.062 113.677 156.161 113.412L157.295 113.73C157.175 114.115 156.975 114.453 156.693 114.744C156.411 115.033 156.063 115.258 155.649 115.42C155.235 115.58 154.769 115.659 154.252 115.659ZM162.599 107.864V108.858H158.483V107.864H162.599ZM159.716 115.5V106.81C159.716 106.372 159.819 106.008 160.024 105.716C160.23 105.424 160.496 105.205 160.825 105.06C161.153 104.914 161.499 104.841 161.864 104.841C162.152 104.841 162.387 104.864 162.57 104.911C162.752 104.957 162.888 105 162.977 105.04L162.639 106.054C162.58 106.034 162.497 106.009 162.391 105.979C162.288 105.95 162.152 105.935 161.983 105.935C161.595 105.935 161.315 106.032 161.143 106.228C160.974 106.424 160.889 106.71 160.889 107.088V115.5H159.716ZM167.131 115.659C166.395 115.659 165.761 115.497 165.227 115.172C164.697 114.844 164.287 114.386 163.999 113.8C163.714 113.21 163.571 112.524 163.571 111.741C163.571 110.959 163.714 110.27 163.999 109.673C164.287 109.073 164.688 108.606 165.202 108.271C165.719 107.933 166.322 107.764 167.012 107.764C167.409 107.764 167.802 107.83 168.19 107.963C168.578 108.096 168.931 108.311 169.249 108.609C169.567 108.904 169.821 109.295 170.01 109.783C170.199 110.27 170.293 110.87 170.293 111.582V112.08H164.407V111.065H169.1C169.1 110.634 169.014 110.25 168.841 109.912C168.672 109.574 168.43 109.307 168.115 109.112C167.804 108.916 167.436 108.818 167.012 108.818C166.544 108.818 166.14 108.934 165.799 109.166C165.461 109.395 165.2 109.693 165.018 110.061C164.836 110.429 164.745 110.823 164.745 111.244V111.92C164.745 112.497 164.844 112.986 165.043 113.387C165.245 113.785 165.525 114.088 165.883 114.297C166.241 114.502 166.657 114.605 167.131 114.605C167.439 114.605 167.718 114.562 167.966 114.476C168.218 114.386 168.435 114.254 168.618 114.078C168.8 113.899 168.941 113.677 169.04 113.412L170.174 113.73C170.054 114.115 169.854 114.453 169.572 114.744C169.29 115.033 168.942 115.258 168.528 115.42C168.114 115.58 167.648 115.659 167.131 115.659ZM172.078 115.5V107.864H173.211V109.017H173.291C173.43 108.639 173.682 108.333 174.047 108.097C174.411 107.862 174.822 107.744 175.279 107.744C175.366 107.744 175.473 107.746 175.603 107.749C175.732 107.753 175.83 107.758 175.896 107.764V108.957C175.856 108.947 175.765 108.933 175.623 108.913C175.483 108.889 175.336 108.878 175.18 108.878C174.809 108.878 174.477 108.956 174.186 109.112C173.897 109.264 173.669 109.476 173.5 109.748C173.334 110.016 173.251 110.323 173.251 110.668V115.5H172.078ZM180.256 115.659C179.52 115.659 178.886 115.497 178.352 115.172C177.822 114.844 177.412 114.386 177.124 113.8C176.839 113.21 176.696 112.524 176.696 111.741C176.696 110.959 176.839 110.27 177.124 109.673C177.412 109.073 177.813 108.606 178.327 108.271C178.844 107.933 179.447 107.764 180.137 107.764C180.534 107.764 180.927 107.83 181.315 107.963C181.703 108.096 182.056 108.311 182.374 108.609C182.692 108.904 182.946 109.295 183.135 109.783C183.324 110.27 183.418 110.87 183.418 111.582V112.08H177.532V111.065H182.225C182.225 110.634 182.139 110.25 181.966 109.912C181.797 109.574 181.555 109.307 181.24 109.112C180.929 108.916 180.561 108.818 180.137 108.818C179.669 108.818 179.265 108.934 178.924 109.166C178.586 109.395 178.325 109.693 178.143 110.061C177.961 110.429 177.87 110.823 177.87 111.244V111.92C177.87 112.497 177.969 112.986 178.168 113.387C178.37 113.785 178.65 114.088 179.008 114.297C179.366 114.502 179.782 114.605 180.256 114.605C180.564 114.605 180.843 114.562 181.091 114.476C181.343 114.386 181.56 114.254 181.743 114.078C181.925 113.899 182.066 113.677 182.165 113.412L183.299 113.73C183.179 114.115 182.979 114.453 182.697 114.744C182.415 115.033 182.067 115.258 181.653 115.42C181.239 115.58 180.773 115.659 180.256 115.659ZM181.111 106.949L180.077 105.557L179.043 106.949H177.929V106.869L179.54 104.801H180.614L182.225 106.869V106.949H181.111ZM186.376 110.906V115.5H185.203V107.864H186.336V109.057H186.436C186.615 108.669 186.886 108.357 187.251 108.122C187.616 107.884 188.086 107.764 188.663 107.764C189.18 107.764 189.632 107.87 190.02 108.082C190.408 108.291 190.71 108.609 190.925 109.037C191.141 109.461 191.248 109.998 191.248 110.648V115.5H190.075V110.727C190.075 110.127 189.919 109.66 189.608 109.325C189.296 108.987 188.868 108.818 188.325 108.818C187.95 108.818 187.616 108.899 187.321 109.062C187.029 109.224 186.799 109.461 186.63 109.773C186.461 110.084 186.376 110.462 186.376 110.906ZM196.494 115.659C195.779 115.659 195.162 115.49 194.645 115.152C194.128 114.814 193.73 114.348 193.452 113.755C193.173 113.162 193.034 112.484 193.034 111.722C193.034 110.946 193.177 110.262 193.462 109.668C193.75 109.072 194.151 108.606 194.665 108.271C195.182 107.933 195.785 107.764 196.475 107.764C197.012 107.764 197.495 107.864 197.926 108.062C198.357 108.261 198.71 108.54 198.985 108.898C199.26 109.256 199.431 109.673 199.497 110.151H198.324C198.235 109.803 198.036 109.494 197.727 109.226C197.423 108.954 197.012 108.818 196.494 108.818C196.037 108.818 195.636 108.937 195.291 109.176C194.95 109.411 194.683 109.745 194.491 110.175C194.302 110.603 194.208 111.105 194.208 111.682C194.208 112.272 194.3 112.786 194.486 113.223C194.675 113.661 194.94 114 195.281 114.242C195.626 114.484 196.03 114.605 196.494 114.605C196.799 114.605 197.076 114.552 197.325 114.446C197.573 114.34 197.784 114.188 197.956 113.989C198.128 113.79 198.251 113.551 198.324 113.273H199.497C199.431 113.723 199.267 114.129 199.005 114.491C198.747 114.849 198.404 115.134 197.976 115.346C197.552 115.555 197.058 115.659 196.494 115.659ZM201.213 115.5V107.864H202.386V115.5H201.213ZM201.809 106.591C201.58 106.591 201.383 106.513 201.218 106.357C201.055 106.201 200.974 106.014 200.974 105.795C200.974 105.577 201.055 105.389 201.218 105.234C201.383 105.078 201.58 105 201.809 105C202.038 105 202.233 105.078 202.396 105.234C202.561 105.389 202.644 105.577 202.644 105.795C202.644 106.014 202.561 106.201 202.396 106.357C202.233 106.513 202.038 106.591 201.809 106.591ZM206.782 115.679C206.298 115.679 205.859 115.588 205.464 115.406C205.07 115.22 204.757 114.953 204.525 114.605C204.293 114.254 204.177 113.83 204.177 113.332C204.177 112.895 204.263 112.54 204.435 112.268C204.608 111.993 204.838 111.778 205.126 111.622C205.415 111.466 205.733 111.35 206.081 111.274C206.432 111.195 206.785 111.132 207.14 111.085C207.604 111.026 207.98 110.981 208.268 110.951C208.56 110.918 208.772 110.863 208.905 110.787C209.041 110.711 209.109 110.578 209.109 110.389V110.349C209.109 109.859 208.974 109.478 208.706 109.206C208.441 108.934 208.038 108.798 207.498 108.798C206.938 108.798 206.499 108.921 206.18 109.166C205.862 109.411 205.638 109.673 205.509 109.952L204.396 109.554C204.594 109.09 204.86 108.729 205.191 108.47C205.526 108.208 205.89 108.026 206.285 107.923C206.683 107.817 207.074 107.764 207.458 107.764C207.703 107.764 207.985 107.794 208.303 107.854C208.625 107.91 208.935 108.028 209.233 108.207C209.535 108.386 209.785 108.656 209.984 109.017C210.183 109.378 210.282 109.862 210.282 110.469V115.5H209.109V114.466H209.049C208.969 114.632 208.837 114.809 208.651 114.998C208.466 115.187 208.219 115.348 207.911 115.48C207.602 115.613 207.226 115.679 206.782 115.679ZM206.961 114.625C207.425 114.625 207.816 114.534 208.134 114.352C208.456 114.169 208.698 113.934 208.86 113.646C209.026 113.357 209.109 113.054 209.109 112.736V111.662C209.059 111.722 208.95 111.776 208.781 111.826C208.615 111.872 208.423 111.914 208.204 111.95C207.988 111.983 207.778 112.013 207.572 112.04C207.37 112.063 207.206 112.083 207.08 112.099C206.775 112.139 206.49 112.204 206.225 112.293C205.963 112.379 205.751 112.51 205.589 112.686C205.43 112.858 205.35 113.094 205.35 113.392C205.35 113.8 205.501 114.108 205.803 114.317C206.107 114.522 206.494 114.625 206.961 114.625Z" fill="black"/>
<path d="M42 225.5C42 220.806 45.8056 217 50.5 217C55.1944 217 59 220.806 59 225.5C59 230.194 55.1944 234 50.5 234C45.8056 234 42 230.194 42 225.5Z" fill="#23DB86"/>
<rect x="73" y="177" width="298" height="94" rx="10" fill="#23DB86"/>
<ellipse cx="111.5" cy="224" rx="25.5" ry="22" fill="#23DB86"/>
<path d="M121.062 230.669C121.062 232.846 120.383 234.721 119.023 236.293C117.663 237.865 115.897 238.837 113.724 239.207V242.942C113.724 243.141 113.663 243.305 113.54 243.433C113.417 243.561 113.26 243.625 113.068 243.625H110.301C110.124 243.625 109.97 243.557 109.84 243.422C109.71 243.287 109.645 243.127 109.645 242.942V239.207C108.743 239.079 107.872 238.858 107.032 238.545C106.191 238.232 105.498 237.915 104.951 237.595C104.405 237.275 103.899 236.933 103.434 236.571C102.97 236.208 102.652 235.941 102.481 235.77C102.311 235.599 102.191 235.471 102.123 235.386C101.89 235.087 101.877 234.795 102.082 234.511L104.193 231.629C104.289 231.487 104.446 231.402 104.664 231.373C104.869 231.345 105.033 231.409 105.156 231.565L105.197 231.608C106.741 233.017 108.402 233.906 110.178 234.276C110.684 234.39 111.189 234.447 111.695 234.447C112.802 234.447 113.776 234.141 114.616 233.529C115.456 232.917 115.877 232.049 115.877 230.925C115.877 230.526 115.774 230.149 115.569 229.794C115.364 229.438 115.135 229.139 114.882 228.897C114.63 228.655 114.23 228.388 113.683 228.097C113.137 227.805 112.686 227.577 112.33 227.414C111.975 227.25 111.429 227.019 110.691 226.72C110.158 226.492 109.738 226.314 109.43 226.186C109.123 226.058 108.702 225.87 108.169 225.621C107.637 225.372 107.209 225.151 106.888 224.959C106.567 224.767 106.181 224.514 105.73 224.201C105.279 223.888 104.914 223.586 104.634 223.294C104.353 223.002 104.056 222.654 103.742 222.248C103.428 221.843 103.185 221.43 103.014 221.01C102.843 220.59 102.7 220.117 102.584 219.591C102.468 219.064 102.41 218.509 102.41 217.926C102.41 215.962 103.079 214.24 104.418 212.76C105.758 211.28 107.5 210.327 109.645 209.9V206.058C109.645 205.873 109.71 205.713 109.84 205.578C109.97 205.443 110.124 205.375 110.301 205.375H113.068C113.26 205.375 113.417 205.439 113.54 205.567C113.663 205.695 113.724 205.859 113.724 206.058V209.815C114.503 209.9 115.258 210.064 115.989 210.306C116.72 210.548 117.315 210.786 117.773 211.021C118.23 211.256 118.664 211.522 119.074 211.821C119.484 212.12 119.751 212.326 119.874 212.44C119.997 212.554 120.099 212.654 120.181 212.739C120.413 212.995 120.448 213.265 120.284 213.55L118.623 216.666C118.514 216.88 118.357 216.994 118.152 217.008C117.961 217.051 117.776 217.001 117.598 216.859C117.557 216.816 117.458 216.73 117.301 216.602C117.144 216.474 116.878 216.286 116.502 216.037C116.126 215.788 115.726 215.56 115.303 215.354C114.879 215.147 114.37 214.962 113.776 214.799C113.181 214.635 112.597 214.553 112.023 214.553C110.725 214.553 109.666 214.859 108.846 215.471C108.026 216.083 107.616 216.873 107.616 217.84C107.616 218.21 107.674 218.552 107.79 218.865C107.906 219.178 108.108 219.473 108.395 219.751C108.682 220.028 108.952 220.263 109.205 220.455C109.457 220.647 109.84 220.868 110.352 221.117C110.865 221.366 111.278 221.558 111.593 221.693C111.907 221.828 112.385 222.024 113.027 222.28C113.752 222.565 114.305 222.789 114.688 222.952C115.07 223.116 115.59 223.365 116.246 223.7C116.901 224.034 117.417 224.336 117.793 224.607C118.169 224.877 118.593 225.233 119.064 225.674C119.535 226.115 119.898 226.567 120.15 227.029C120.403 227.492 120.618 228.036 120.796 228.662C120.974 229.288 121.062 229.957 121.062 230.669Z" fill="white"/>
<path d="M146.011 210.5V198.864H150.602C151.481 198.864 152.231 199.021 152.852 199.335C153.477 199.646 153.953 200.087 154.278 200.659C154.608 201.227 154.773 201.896 154.773 202.665C154.773 203.437 154.606 204.102 154.273 204.659C153.939 205.212 153.456 205.636 152.824 205.932C152.195 206.227 151.434 206.375 150.54 206.375H147.466V204.398H150.142C150.612 204.398 151.002 204.333 151.312 204.205C151.623 204.076 151.854 203.883 152.006 203.625C152.161 203.367 152.239 203.047 152.239 202.665C152.239 202.278 152.161 201.953 152.006 201.688C151.854 201.422 151.621 201.222 151.307 201.085C150.996 200.945 150.604 200.875 150.131 200.875H148.472V210.5H146.011ZM152.295 205.205L155.188 210.5H152.472L149.642 205.205H152.295ZM160.303 210.67C159.405 210.67 158.632 210.489 157.984 210.125C157.34 209.758 156.844 209.239 156.496 208.568C156.147 207.894 155.973 207.097 155.973 206.176C155.973 205.278 156.147 204.491 156.496 203.812C156.844 203.134 157.335 202.606 157.967 202.227C158.604 201.848 159.35 201.659 160.206 201.659C160.782 201.659 161.318 201.752 161.814 201.938C162.314 202.119 162.75 202.394 163.121 202.761C163.496 203.129 163.787 203.591 163.996 204.148C164.204 204.701 164.308 205.348 164.308 206.091V206.756H156.939V205.256H162.03C162.03 204.907 161.954 204.598 161.803 204.33C161.651 204.061 161.441 203.85 161.172 203.699C160.907 203.544 160.598 203.466 160.246 203.466C159.878 203.466 159.553 203.551 159.268 203.722C158.988 203.888 158.768 204.114 158.609 204.398C158.45 204.678 158.369 204.991 158.365 205.335V206.761C158.365 207.193 158.445 207.566 158.604 207.881C158.767 208.195 158.996 208.438 159.291 208.608C159.587 208.778 159.937 208.864 160.342 208.864C160.611 208.864 160.857 208.826 161.081 208.75C161.304 208.674 161.496 208.561 161.655 208.409C161.814 208.258 161.935 208.072 162.018 207.852L164.257 208C164.143 208.538 163.911 209.008 163.558 209.409C163.21 209.807 162.759 210.117 162.206 210.341C161.657 210.561 161.022 210.67 160.303 210.67ZM170.581 201.773V203.591H165.195V201.773H170.581ZM166.428 210.5V201.142C166.428 200.509 166.551 199.985 166.797 199.568C167.047 199.152 167.388 198.839 167.82 198.631C168.251 198.422 168.742 198.318 169.291 198.318C169.662 198.318 170.001 198.347 170.308 198.403C170.619 198.46 170.85 198.511 171.001 198.557L170.57 200.375C170.475 200.345 170.357 200.316 170.217 200.29C170.081 200.263 169.941 200.25 169.797 200.25C169.441 200.25 169.193 200.333 169.053 200.5C168.912 200.663 168.842 200.892 168.842 201.188V210.5H166.428ZM175.724 210.67C174.827 210.67 174.054 210.489 173.406 210.125C172.762 209.758 172.266 209.239 171.918 208.568C171.569 207.894 171.395 207.097 171.395 206.176C171.395 205.278 171.569 204.491 171.918 203.812C172.266 203.134 172.757 202.606 173.389 202.227C174.026 201.848 174.772 201.659 175.628 201.659C176.204 201.659 176.74 201.752 177.236 201.938C177.736 202.119 178.171 202.394 178.543 202.761C178.918 203.129 179.209 203.591 179.418 204.148C179.626 204.701 179.73 205.348 179.73 206.091V206.756H172.361V205.256H177.452C177.452 204.907 177.376 204.598 177.224 204.33C177.073 204.061 176.863 203.85 176.594 203.699C176.329 203.544 176.02 203.466 175.668 203.466C175.3 203.466 174.974 203.551 174.69 203.722C174.41 203.888 174.19 204.114 174.031 204.398C173.872 204.678 173.791 204.991 173.787 205.335V206.761C173.787 207.193 173.866 207.566 174.026 207.881C174.188 208.195 174.418 208.438 174.713 208.608C175.009 208.778 175.359 208.864 175.764 208.864C176.033 208.864 176.279 208.826 176.503 208.75C176.726 208.674 176.918 208.561 177.077 208.409C177.236 208.258 177.357 208.072 177.44 207.852L179.679 208C179.565 208.538 179.332 209.008 178.98 209.409C178.632 209.807 178.181 210.117 177.628 210.341C177.079 210.561 176.444 210.67 175.724 210.67ZM181.31 210.5V201.773H183.656V203.295H183.747C183.906 202.754 184.173 202.345 184.548 202.068C184.923 201.788 185.355 201.648 185.844 201.648C185.965 201.648 186.096 201.655 186.236 201.67C186.376 201.686 186.499 201.706 186.605 201.733V203.881C186.491 203.847 186.334 203.816 186.134 203.79C185.933 203.763 185.749 203.75 185.582 203.75C185.226 203.75 184.908 203.828 184.628 203.983C184.351 204.134 184.132 204.347 183.969 204.619C183.81 204.892 183.73 205.206 183.73 205.562V210.5H181.31ZM191.428 210.67C190.53 210.67 189.757 210.489 189.109 210.125C188.465 209.758 187.969 209.239 187.621 208.568C187.272 207.894 187.098 207.097 187.098 206.176C187.098 205.278 187.272 204.491 187.621 203.812C187.969 203.134 188.46 202.606 189.092 202.227C189.729 201.848 190.475 201.659 191.331 201.659C191.907 201.659 192.443 201.752 192.939 201.938C193.439 202.119 193.875 202.394 194.246 202.761C194.621 203.129 194.912 203.591 195.121 204.148C195.329 204.701 195.433 205.348 195.433 206.091V206.756H188.064V205.256H193.155C193.155 204.907 193.079 204.598 192.928 204.33C192.776 204.061 192.566 203.85 192.297 203.699C192.032 203.544 191.723 203.466 191.371 203.466C191.003 203.466 190.678 203.551 190.393 203.722C190.113 203.888 189.893 204.114 189.734 204.398C189.575 204.678 189.494 204.991 189.49 205.335V206.761C189.49 207.193 189.57 207.566 189.729 207.881C189.892 208.195 190.121 208.438 190.416 208.608C190.712 208.778 191.062 208.864 191.467 208.864C191.736 208.864 191.982 208.826 192.206 208.75C192.429 208.674 192.621 208.561 192.78 208.409C192.939 208.258 193.06 208.072 193.143 207.852L195.382 208C195.268 208.538 195.036 209.008 194.683 209.409C194.335 209.807 193.884 210.117 193.331 210.341C192.782 210.561 192.147 210.67 191.428 210.67ZM192.416 200.727L191.274 199.341L190.132 200.727H188.07V200.648L190.371 198.148H192.172L194.479 200.648V200.727H192.416ZM199.433 205.455V210.5H197.013V201.773H199.32V203.312H199.422C199.615 202.805 199.939 202.403 200.393 202.108C200.848 201.809 201.399 201.659 202.047 201.659C202.653 201.659 203.181 201.792 203.632 202.057C204.083 202.322 204.433 202.701 204.683 203.193C204.933 203.682 205.058 204.265 205.058 204.943V210.5H202.638V205.375C202.642 204.841 202.505 204.424 202.229 204.125C201.952 203.822 201.571 203.67 201.087 203.67C200.761 203.67 200.473 203.741 200.223 203.881C199.977 204.021 199.784 204.225 199.643 204.494C199.507 204.759 199.437 205.08 199.433 205.455ZM210.909 210.67C210.015 210.67 209.246 210.481 208.602 210.102C207.962 209.72 207.47 209.189 207.125 208.511C206.784 207.833 206.614 207.053 206.614 206.17C206.614 205.277 206.786 204.492 207.131 203.818C207.479 203.14 207.973 202.612 208.614 202.233C209.254 201.85 210.015 201.659 210.898 201.659C211.659 201.659 212.326 201.797 212.898 202.074C213.47 202.35 213.922 202.739 214.256 203.239C214.589 203.739 214.773 204.326 214.807 205H212.523C212.458 204.564 212.288 204.214 212.011 203.949C211.739 203.68 211.381 203.545 210.938 203.545C210.562 203.545 210.235 203.648 209.955 203.852C209.678 204.053 209.462 204.347 209.307 204.733C209.152 205.119 209.074 205.587 209.074 206.136C209.074 206.693 209.15 207.167 209.301 207.557C209.456 207.947 209.674 208.244 209.955 208.449C210.235 208.653 210.562 208.756 210.938 208.756C211.214 208.756 211.462 208.699 211.682 208.585C211.905 208.472 212.089 208.307 212.233 208.091C212.381 207.871 212.477 207.608 212.523 207.301H214.807C214.769 207.968 214.587 208.555 214.261 209.062C213.939 209.566 213.494 209.96 212.926 210.244C212.358 210.528 211.686 210.67 210.909 210.67ZM216.357 210.5V201.773H218.777V210.5H216.357ZM217.572 200.648C217.213 200.648 216.904 200.528 216.646 200.29C216.393 200.047 216.266 199.758 216.266 199.42C216.266 199.087 216.393 198.801 216.646 198.562C216.904 198.32 217.213 198.199 217.572 198.199C217.932 198.199 218.239 198.32 218.493 198.562C218.75 198.801 218.879 199.087 218.879 199.42C218.879 199.758 218.75 200.047 218.493 200.29C218.239 200.528 217.932 200.648 217.572 200.648ZM223.205 210.665C222.648 210.665 222.152 210.568 221.716 210.375C221.28 210.178 220.936 209.888 220.682 209.506C220.432 209.119 220.307 208.638 220.307 208.062C220.307 207.578 220.396 207.17 220.574 206.841C220.752 206.511 220.994 206.246 221.301 206.045C221.608 205.845 221.956 205.693 222.347 205.591C222.741 205.489 223.153 205.417 223.585 205.375C224.093 205.322 224.502 205.273 224.812 205.227C225.123 205.178 225.348 205.106 225.489 205.011C225.629 204.917 225.699 204.777 225.699 204.591V204.557C225.699 204.197 225.585 203.919 225.358 203.722C225.134 203.525 224.816 203.426 224.403 203.426C223.968 203.426 223.621 203.523 223.364 203.716C223.106 203.905 222.936 204.144 222.852 204.432L220.614 204.25C220.727 203.72 220.951 203.261 221.284 202.875C221.617 202.485 222.047 202.186 222.574 201.977C223.104 201.765 223.718 201.659 224.415 201.659C224.9 201.659 225.364 201.716 225.807 201.83C226.254 201.943 226.65 202.119 226.994 202.358C227.343 202.597 227.617 202.903 227.818 203.278C228.019 203.65 228.119 204.095 228.119 204.614V210.5H225.824V209.29H225.756C225.616 209.562 225.428 209.803 225.193 210.011C224.958 210.216 224.676 210.377 224.347 210.494C224.017 210.608 223.636 210.665 223.205 210.665ZM223.898 208.994C224.254 208.994 224.568 208.924 224.841 208.784C225.114 208.64 225.328 208.447 225.483 208.205C225.638 207.962 225.716 207.687 225.716 207.381V206.455C225.64 206.504 225.536 206.549 225.403 206.591C225.275 206.629 225.129 206.665 224.966 206.699C224.803 206.729 224.64 206.758 224.477 206.784C224.314 206.807 224.167 206.828 224.034 206.847C223.75 206.888 223.502 206.955 223.29 207.045C223.078 207.136 222.913 207.259 222.795 207.415C222.678 207.566 222.619 207.756 222.619 207.983C222.619 208.312 222.739 208.564 222.977 208.739C223.22 208.909 223.527 208.994 223.898 208.994ZM233.7 213.773V201.773H236.087V203.239H236.195C236.301 203.004 236.454 202.765 236.655 202.523C236.859 202.277 237.125 202.072 237.45 201.909C237.78 201.742 238.189 201.659 238.678 201.659C239.314 201.659 239.901 201.826 240.439 202.159C240.977 202.489 241.407 202.987 241.729 203.653C242.051 204.316 242.212 205.148 242.212 206.148C242.212 207.121 242.054 207.943 241.74 208.614C241.429 209.28 241.005 209.786 240.467 210.131C239.933 210.472 239.335 210.642 238.672 210.642C238.202 210.642 237.803 210.564 237.473 210.409C237.147 210.254 236.88 210.059 236.672 209.824C236.464 209.585 236.304 209.345 236.195 209.102H236.121V213.773H233.7ZM236.07 206.136C236.07 206.655 236.142 207.108 236.286 207.494C236.429 207.881 236.638 208.182 236.911 208.398C237.183 208.61 237.515 208.716 237.905 208.716C238.299 208.716 238.632 208.608 238.905 208.392C239.178 208.172 239.384 207.869 239.524 207.483C239.668 207.093 239.74 206.644 239.74 206.136C239.74 205.633 239.67 205.189 239.53 204.807C239.39 204.424 239.183 204.125 238.911 203.909C238.638 203.693 238.303 203.585 237.905 203.585C237.511 203.585 237.178 203.689 236.905 203.898C236.636 204.106 236.429 204.402 236.286 204.784C236.142 205.167 236.07 205.617 236.07 206.136ZM246.314 210.665C245.757 210.665 245.261 210.568 244.825 210.375C244.39 210.178 244.045 209.888 243.791 209.506C243.541 209.119 243.416 208.638 243.416 208.062C243.416 207.578 243.505 207.17 243.683 206.841C243.861 206.511 244.104 206.246 244.411 206.045C244.717 205.845 245.066 205.693 245.456 205.591C245.85 205.489 246.263 205.417 246.695 205.375C247.202 205.322 247.611 205.273 247.922 205.227C248.232 205.178 248.458 205.106 248.598 205.011C248.738 204.917 248.808 204.777 248.808 204.591V204.557C248.808 204.197 248.695 203.919 248.467 203.722C248.244 203.525 247.926 203.426 247.513 203.426C247.077 203.426 246.731 203.523 246.473 203.716C246.215 203.905 246.045 204.144 245.962 204.432L243.723 204.25C243.837 203.72 244.06 203.261 244.393 202.875C244.727 202.485 245.157 202.186 245.683 201.977C246.214 201.765 246.827 201.659 247.524 201.659C248.009 201.659 248.473 201.716 248.916 201.83C249.363 201.943 249.759 202.119 250.104 202.358C250.452 202.597 250.727 202.903 250.928 203.278C251.128 203.65 251.229 204.095 251.229 204.614V210.5H248.933V209.29H248.865C248.725 209.562 248.537 209.803 248.303 210.011C248.068 210.216 247.786 210.377 247.456 210.494C247.126 210.608 246.746 210.665 246.314 210.665ZM247.007 208.994C247.363 208.994 247.678 208.924 247.95 208.784C248.223 208.64 248.437 208.447 248.592 208.205C248.748 207.962 248.825 207.687 248.825 207.381V206.455C248.75 206.504 248.645 206.549 248.513 206.591C248.384 206.629 248.238 206.665 248.075 206.699C247.912 206.729 247.75 206.758 247.587 206.784C247.424 206.807 247.276 206.828 247.143 206.847C246.859 206.888 246.611 206.955 246.399 207.045C246.187 207.136 246.022 207.259 245.905 207.415C245.787 207.566 245.729 207.756 245.729 207.983C245.729 208.312 245.848 208.564 246.087 208.739C246.329 208.909 246.636 208.994 247.007 208.994ZM257.038 213.955C256.254 213.955 255.582 213.847 255.021 213.631C254.464 213.419 254.021 213.129 253.692 212.761C253.362 212.394 253.148 211.981 253.05 211.523L255.288 211.222C255.357 211.396 255.464 211.559 255.612 211.71C255.76 211.862 255.955 211.983 256.197 212.074C256.444 212.169 256.743 212.216 257.095 212.216C257.622 212.216 258.055 212.087 258.396 211.83C258.741 211.576 258.913 211.15 258.913 210.551V208.955H258.811C258.705 209.197 258.546 209.426 258.334 209.642C258.122 209.858 257.849 210.034 257.516 210.17C257.182 210.307 256.785 210.375 256.322 210.375C255.667 210.375 255.071 210.223 254.533 209.92C253.999 209.614 253.572 209.146 253.254 208.517C252.94 207.884 252.783 207.085 252.783 206.119C252.783 205.131 252.944 204.305 253.266 203.642C253.588 202.979 254.016 202.483 254.55 202.153C255.088 201.824 255.677 201.659 256.317 201.659C256.805 201.659 257.214 201.742 257.544 201.909C257.874 202.072 258.139 202.277 258.339 202.523C258.544 202.765 258.701 203.004 258.811 203.239H258.902V201.773H261.305V210.585C261.305 211.328 261.124 211.949 260.76 212.449C260.396 212.949 259.893 213.324 259.249 213.574C258.608 213.828 257.872 213.955 257.038 213.955ZM257.089 208.557C257.48 208.557 257.809 208.46 258.078 208.267C258.351 208.07 258.559 207.79 258.703 207.426C258.851 207.059 258.925 206.619 258.925 206.108C258.925 205.597 258.853 205.153 258.709 204.778C258.565 204.4 258.357 204.106 258.084 203.898C257.811 203.689 257.48 203.585 257.089 203.585C256.692 203.585 256.357 203.693 256.084 203.909C255.811 204.121 255.605 204.417 255.464 204.795C255.324 205.174 255.254 205.612 255.254 206.108C255.254 206.612 255.324 207.047 255.464 207.415C255.608 207.778 255.815 208.061 256.084 208.261C256.357 208.458 256.692 208.557 257.089 208.557ZM265.72 210.665C265.163 210.665 264.667 210.568 264.232 210.375C263.796 210.178 263.451 209.888 263.197 209.506C262.947 209.119 262.822 208.638 262.822 208.062C262.822 207.578 262.911 207.17 263.089 206.841C263.268 206.511 263.51 206.246 263.817 206.045C264.124 205.845 264.472 205.693 264.862 205.591C265.256 205.489 265.669 205.417 266.101 205.375C266.608 205.322 267.018 205.273 267.328 205.227C267.639 205.178 267.864 205.106 268.004 205.011C268.144 204.917 268.214 204.777 268.214 204.591V204.557C268.214 204.197 268.101 203.919 267.874 203.722C267.65 203.525 267.332 203.426 266.919 203.426C266.483 203.426 266.137 203.523 265.879 203.716C265.622 203.905 265.451 204.144 265.368 204.432L263.129 204.25C263.243 203.72 263.466 203.261 263.8 202.875C264.133 202.485 264.563 202.186 265.089 201.977C265.62 201.765 266.233 201.659 266.93 201.659C267.415 201.659 267.879 201.716 268.322 201.83C268.769 201.943 269.165 202.119 269.51 202.358C269.858 202.597 270.133 202.903 270.334 203.278C270.535 203.65 270.635 204.095 270.635 204.614V210.5H268.339V209.29H268.271C268.131 209.562 267.944 209.803 267.709 210.011C267.474 210.216 267.192 210.377 266.862 210.494C266.533 210.608 266.152 210.665 265.72 210.665ZM266.413 208.994C266.769 208.994 267.084 208.924 267.357 208.784C267.629 208.64 267.843 208.447 267.999 208.205C268.154 207.962 268.232 207.687 268.232 207.381V206.455C268.156 206.504 268.052 206.549 267.919 206.591C267.79 206.629 267.644 206.665 267.482 206.699C267.319 206.729 267.156 206.758 266.993 206.784C266.83 206.807 266.682 206.828 266.55 206.847C266.266 206.888 266.018 206.955 265.805 207.045C265.593 207.136 265.429 207.259 265.311 207.415C265.194 207.566 265.135 207.756 265.135 207.983C265.135 208.312 265.254 208.564 265.493 208.739C265.735 208.909 266.042 208.994 266.413 208.994Z" fill="white"/>
<path d="M148.082 232.5L145.298 222.318H146.551L148.679 230.611H148.778L150.946 222.318H152.338L154.506 230.611H154.605L156.733 222.318H157.986L155.202 232.5H153.929L151.682 224.386H151.602L149.355 232.5H148.082ZM159.363 232.5V224.864H160.536V232.5H159.363ZM159.96 223.591C159.731 223.591 159.534 223.513 159.368 223.357C159.205 223.201 159.124 223.014 159.124 222.795C159.124 222.577 159.205 222.389 159.368 222.234C159.534 222.078 159.731 222 159.96 222C160.188 222 160.384 222.078 160.546 222.234C160.712 222.389 160.795 222.577 160.795 222.795C160.795 223.014 160.712 223.201 160.546 223.357C160.384 223.513 160.188 223.591 159.96 223.591ZM163.858 222.318V232.5H162.685V222.318H163.858ZM171.417 226.574L170.363 226.872C170.296 226.696 170.199 226.526 170.069 226.36C169.943 226.191 169.771 226.052 169.552 225.942C169.333 225.833 169.053 225.778 168.712 225.778C168.245 225.778 167.855 225.886 167.544 226.102C167.235 226.314 167.081 226.584 167.081 226.912C167.081 227.204 167.187 227.434 167.4 227.603C167.612 227.772 167.943 227.913 168.394 228.026L169.527 228.304C170.21 228.47 170.719 228.723 171.054 229.065C171.388 229.403 171.556 229.839 171.556 230.372C171.556 230.81 171.43 231.201 171.178 231.545C170.929 231.89 170.581 232.162 170.134 232.361C169.686 232.56 169.166 232.659 168.573 232.659C167.794 232.659 167.149 232.49 166.639 232.152C166.128 231.814 165.805 231.32 165.669 230.67L166.783 230.392C166.889 230.803 167.09 231.111 167.385 231.317C167.683 231.522 168.072 231.625 168.553 231.625C169.1 231.625 169.534 231.509 169.855 231.277C170.18 231.042 170.343 230.76 170.343 230.432C170.343 230.167 170.25 229.945 170.064 229.766C169.879 229.583 169.594 229.447 169.209 229.358L167.936 229.06C167.237 228.894 166.723 228.637 166.395 228.289C166.07 227.938 165.908 227.499 165.908 226.972C165.908 226.541 166.029 226.16 166.271 225.828C166.516 225.497 166.849 225.237 167.27 225.048C167.694 224.859 168.175 224.764 168.712 224.764C169.468 224.764 170.061 224.93 170.492 225.261C170.926 225.593 171.234 226.03 171.417 226.574ZM176.424 232.659C175.735 232.659 175.13 232.495 174.61 232.167C174.093 231.839 173.688 231.38 173.396 230.79C173.108 230.2 172.964 229.51 172.964 228.722C172.964 227.926 173.108 227.232 173.396 226.638C173.688 226.045 174.093 225.585 174.61 225.256C175.13 224.928 175.735 224.764 176.424 224.764C177.114 224.764 177.717 224.928 178.234 225.256C178.754 225.585 179.159 226.045 179.447 226.638C179.739 227.232 179.884 227.926 179.884 228.722C179.884 229.51 179.739 230.2 179.447 230.79C179.159 231.38 178.754 231.839 178.234 232.167C177.717 232.495 177.114 232.659 176.424 232.659ZM176.424 231.605C176.948 231.605 177.379 231.471 177.717 231.202C178.055 230.934 178.305 230.581 178.468 230.143C178.63 229.706 178.711 229.232 178.711 228.722C178.711 228.211 178.63 227.736 178.468 227.295C178.305 226.854 178.055 226.498 177.717 226.226C177.379 225.954 176.948 225.818 176.424 225.818C175.901 225.818 175.47 225.954 175.132 226.226C174.794 226.498 174.543 226.854 174.381 227.295C174.218 227.736 174.137 228.211 174.137 228.722C174.137 229.232 174.218 229.706 174.381 230.143C174.543 230.581 174.794 230.934 175.132 231.202C175.47 231.471 175.901 231.605 176.424 231.605ZM182.849 227.906V232.5H181.675V224.864H182.809V226.057H182.908C183.087 225.669 183.359 225.357 183.724 225.122C184.088 224.884 184.559 224.764 185.136 224.764C185.653 224.764 186.105 224.87 186.493 225.082C186.881 225.291 187.182 225.609 187.398 226.037C187.613 226.461 187.721 226.998 187.721 227.648V232.5H186.548V227.727C186.548 227.127 186.392 226.66 186.08 226.325C185.769 225.987 185.341 225.818 184.798 225.818C184.423 225.818 184.088 225.899 183.793 226.062C183.502 226.224 183.271 226.461 183.102 226.773C182.933 227.084 182.849 227.462 182.849 227.906ZM200.922 225.5C200.812 225.165 200.668 224.865 200.489 224.6C200.314 224.332 200.103 224.103 199.858 223.914C199.616 223.725 199.341 223.581 199.032 223.482C198.724 223.382 198.386 223.332 198.018 223.332C197.415 223.332 196.867 223.488 196.373 223.8C195.879 224.111 195.486 224.57 195.194 225.177C194.903 225.783 194.757 226.527 194.757 227.409C194.757 228.291 194.904 229.035 195.199 229.641C195.494 230.248 195.894 230.707 196.398 231.018C196.901 231.33 197.468 231.486 198.098 231.486C198.681 231.486 199.195 231.362 199.639 231.113C200.086 230.861 200.434 230.506 200.683 230.049C200.935 229.588 201.061 229.046 201.061 228.423L201.439 228.503H198.376V227.409H202.254V228.503C202.254 229.341 202.075 230.071 201.717 230.69C201.363 231.31 200.872 231.791 200.246 232.132C199.622 232.47 198.907 232.639 198.098 232.639C197.196 232.639 196.404 232.427 195.721 232.003C195.042 231.579 194.512 230.975 194.131 230.193C193.753 229.411 193.564 228.483 193.564 227.409C193.564 226.604 193.671 225.879 193.887 225.237C194.106 224.59 194.414 224.04 194.812 223.586C195.209 223.132 195.68 222.784 196.224 222.542C196.767 222.3 197.365 222.179 198.018 222.179C198.555 222.179 199.056 222.26 199.52 222.423C199.987 222.582 200.403 222.809 200.768 223.104C201.135 223.395 201.442 223.745 201.687 224.153C201.933 224.557 202.102 225.006 202.194 225.5H200.922ZM207.309 232.659C206.62 232.659 206.015 232.495 205.494 232.167C204.977 231.839 204.573 231.38 204.281 230.79C203.993 230.2 203.849 229.51 203.849 228.722C203.849 227.926 203.993 227.232 204.281 226.638C204.573 226.045 204.977 225.585 205.494 225.256C206.015 224.928 206.62 224.764 207.309 224.764C207.998 224.764 208.602 224.928 209.119 225.256C209.639 225.585 210.043 226.045 210.332 226.638C210.623 227.232 210.769 227.926 210.769 228.722C210.769 229.51 210.623 230.2 210.332 230.79C210.043 231.38 209.639 231.839 209.119 232.167C208.602 232.495 207.998 232.659 207.309 232.659ZM207.309 231.605C207.833 231.605 208.263 231.471 208.602 231.202C208.94 230.934 209.19 230.581 209.352 230.143C209.515 229.706 209.596 229.232 209.596 228.722C209.596 228.211 209.515 227.736 209.352 227.295C209.19 226.854 208.94 226.498 208.602 226.226C208.263 225.954 207.833 225.818 207.309 225.818C206.785 225.818 206.354 225.954 206.016 226.226C205.678 226.498 205.428 226.854 205.266 227.295C205.103 227.736 205.022 228.211 205.022 228.722C205.022 229.232 205.103 229.706 205.266 230.143C205.428 230.581 205.678 230.934 206.016 231.202C206.354 231.471 206.785 231.605 207.309 231.605ZM212.56 232.5V224.864H213.694V226.057H213.793C213.952 225.649 214.209 225.333 214.564 225.107C214.918 224.879 215.344 224.764 215.841 224.764C216.345 224.764 216.765 224.879 217.099 225.107C217.437 225.333 217.701 225.649 217.89 226.057H217.969C218.165 225.662 218.458 225.349 218.849 225.117C219.24 224.882 219.709 224.764 220.256 224.764C220.939 224.764 221.497 224.978 221.932 225.406C222.366 225.83 222.583 226.491 222.583 227.389V232.5H221.41V227.389C221.41 226.826 221.256 226.423 220.947 226.181C220.639 225.939 220.276 225.818 219.858 225.818C219.322 225.818 218.906 225.981 218.611 226.305C218.316 226.627 218.168 227.035 218.168 227.528V232.5H216.975V227.27C216.975 226.836 216.834 226.486 216.552 226.221C216.271 225.952 215.908 225.818 215.464 225.818C215.159 225.818 214.874 225.899 214.608 226.062C214.347 226.224 214.135 226.45 213.972 226.738C213.813 227.023 213.733 227.353 213.733 227.727V232.5H212.56ZM227.93 232.659C227.194 232.659 226.559 232.497 226.026 232.172C225.495 231.844 225.086 231.386 224.798 230.8C224.513 230.21 224.37 229.524 224.37 228.741C224.37 227.959 224.513 227.27 224.798 226.673C225.086 226.073 225.487 225.606 226.001 225.271C226.518 224.933 227.121 224.764 227.811 224.764C228.208 224.764 228.601 224.83 228.989 224.963C229.377 225.096 229.73 225.311 230.048 225.609C230.366 225.904 230.619 226.295 230.808 226.783C230.997 227.27 231.092 227.87 231.092 228.582V229.08H225.205V228.065H229.899C229.899 227.634 229.812 227.25 229.64 226.912C229.471 226.574 229.229 226.307 228.914 226.112C228.603 225.916 228.235 225.818 227.811 225.818C227.343 225.818 226.939 225.934 226.597 226.166C226.259 226.395 225.999 226.693 225.817 227.061C225.635 227.429 225.544 227.823 225.544 228.244V228.92C225.544 229.497 225.643 229.986 225.842 230.387C226.044 230.785 226.324 231.088 226.682 231.297C227.04 231.502 227.456 231.605 227.93 231.605C228.238 231.605 228.517 231.562 228.765 231.476C229.017 231.386 229.234 231.254 229.416 231.078C229.599 230.899 229.74 230.677 229.839 230.412L230.972 230.73C230.853 231.115 230.653 231.453 230.371 231.744C230.089 232.033 229.741 232.258 229.327 232.42C228.913 232.58 228.447 232.659 227.93 232.659ZM238.286 226.574L237.232 226.872C237.165 226.696 237.068 226.526 236.938 226.36C236.812 226.191 236.64 226.052 236.421 225.942C236.203 225.833 235.923 225.778 235.581 225.778C235.114 225.778 234.724 225.886 234.413 226.102C234.105 226.314 233.95 226.584 233.95 226.912C233.95 227.204 234.057 227.434 234.269 227.603C234.481 227.772 234.812 227.913 235.263 228.026L236.396 228.304C237.079 228.47 237.588 228.723 237.923 229.065C238.258 229.403 238.425 229.839 238.425 230.372C238.425 230.81 238.299 231.201 238.047 231.545C237.798 231.89 237.45 232.162 237.003 232.361C236.556 232.56 236.035 232.659 235.442 232.659C234.663 232.659 234.018 232.49 233.508 232.152C232.998 231.814 232.674 231.32 232.539 230.67L233.652 230.392C233.758 230.803 233.959 231.111 234.254 231.317C234.552 231.522 234.941 231.625 235.422 231.625C235.969 231.625 236.403 231.509 236.725 231.277C237.049 231.042 237.212 230.76 237.212 230.432C237.212 230.167 237.119 229.945 236.933 229.766C236.748 229.583 236.463 229.447 236.078 229.358L234.806 229.06C234.106 228.894 233.593 228.637 233.264 228.289C232.94 227.938 232.777 227.499 232.777 226.972C232.777 226.541 232.898 226.16 233.14 225.828C233.385 225.497 233.718 225.237 234.139 225.048C234.564 224.859 235.044 224.764 235.581 224.764C236.337 224.764 236.93 224.93 237.361 225.261C237.795 225.593 238.103 226.03 238.286 226.574ZM244.129 235.364V224.864H245.262V226.077H245.401C245.487 225.944 245.607 225.775 245.759 225.57C245.915 225.361 246.137 225.175 246.425 225.013C246.717 224.847 247.112 224.764 247.609 224.764C248.252 224.764 248.818 224.925 249.309 225.246C249.799 225.568 250.182 226.024 250.457 226.614C250.732 227.204 250.87 227.9 250.87 228.702C250.87 229.51 250.732 230.211 250.457 230.805C250.182 231.395 249.801 231.852 249.314 232.177C248.827 232.498 248.265 232.659 247.629 232.659C247.138 232.659 246.745 232.578 246.45 232.415C246.155 232.25 245.928 232.062 245.769 231.854C245.61 231.642 245.487 231.466 245.401 231.327H245.302V235.364H244.129ZM245.282 228.682C245.282 229.259 245.366 229.767 245.536 230.208C245.705 230.646 245.951 230.989 246.276 231.237C246.601 231.482 246.999 231.605 247.469 231.605C247.96 231.605 248.369 231.476 248.697 231.217C249.029 230.955 249.277 230.604 249.443 230.163C249.612 229.719 249.697 229.225 249.697 228.682C249.697 228.145 249.614 227.661 249.448 227.23C249.286 226.796 249.039 226.453 248.707 226.201C248.379 225.946 247.967 225.818 247.469 225.818C246.992 225.818 246.591 225.939 246.266 226.181C245.942 226.42 245.696 226.754 245.531 227.185C245.365 227.613 245.282 228.112 245.282 228.682ZM254.907 232.679C254.423 232.679 253.984 232.588 253.589 232.406C253.195 232.22 252.882 231.953 252.65 231.605C252.418 231.254 252.302 230.83 252.302 230.332C252.302 229.895 252.388 229.54 252.56 229.268C252.733 228.993 252.963 228.778 253.251 228.622C253.54 228.466 253.858 228.35 254.206 228.274C254.557 228.195 254.91 228.132 255.265 228.085C255.729 228.026 256.105 227.981 256.393 227.951C256.685 227.918 256.897 227.863 257.03 227.787C257.166 227.711 257.234 227.578 257.234 227.389V227.349C257.234 226.859 257.099 226.478 256.831 226.206C256.566 225.934 256.163 225.798 255.623 225.798C255.063 225.798 254.624 225.921 254.305 226.166C253.987 226.411 253.763 226.673 253.634 226.952L252.521 226.554C252.719 226.09 252.985 225.729 253.316 225.47C253.651 225.208 254.015 225.026 254.41 224.923C254.808 224.817 255.199 224.764 255.583 224.764C255.828 224.764 256.11 224.794 256.428 224.854C256.75 224.91 257.06 225.028 257.358 225.207C257.66 225.386 257.91 225.656 258.109 226.017C258.308 226.378 258.407 226.862 258.407 227.469V232.5H257.234V231.466H257.174C257.094 231.632 256.962 231.809 256.776 231.998C256.591 232.187 256.344 232.348 256.036 232.48C255.727 232.613 255.351 232.679 254.907 232.679ZM255.086 231.625C255.55 231.625 255.941 231.534 256.259 231.352C256.581 231.169 256.823 230.934 256.985 230.646C257.151 230.357 257.234 230.054 257.234 229.736V228.662C257.184 228.722 257.075 228.776 256.906 228.826C256.74 228.872 256.548 228.914 256.329 228.95C256.113 228.983 255.903 229.013 255.697 229.04C255.495 229.063 255.331 229.083 255.205 229.099C254.9 229.139 254.615 229.204 254.35 229.293C254.088 229.379 253.876 229.51 253.714 229.686C253.555 229.858 253.475 230.094 253.475 230.392C253.475 230.8 253.626 231.108 253.928 231.317C254.232 231.522 254.619 231.625 255.086 231.625ZM263.631 235.523C263.064 235.523 262.577 235.45 262.169 235.304C261.762 235.161 261.422 234.973 261.15 234.737C260.882 234.505 260.668 234.257 260.509 233.991L261.443 233.335C261.549 233.474 261.684 233.634 261.846 233.812C262.008 233.995 262.231 234.152 262.512 234.285C262.797 234.421 263.17 234.489 263.631 234.489C264.247 234.489 264.756 234.339 265.157 234.041C265.558 233.743 265.759 233.276 265.759 232.639V231.088H265.659C265.573 231.227 265.45 231.4 265.291 231.605C265.136 231.807 264.91 231.988 264.615 232.147C264.324 232.303 263.929 232.381 263.432 232.381C262.816 232.381 262.262 232.235 261.771 231.943C261.284 231.652 260.898 231.227 260.613 230.67C260.331 230.114 260.191 229.437 260.191 228.642C260.191 227.86 260.328 227.179 260.603 226.599C260.878 226.015 261.261 225.565 261.752 225.246C262.242 224.925 262.809 224.764 263.452 224.764C263.949 224.764 264.343 224.847 264.635 225.013C264.93 225.175 265.155 225.361 265.311 225.57C265.47 225.775 265.593 225.944 265.679 226.077H265.798V224.864H266.932V232.719C266.932 233.375 266.783 233.909 266.485 234.32C266.19 234.734 265.792 235.037 265.291 235.229C264.794 235.425 264.241 235.523 263.631 235.523ZM263.591 231.327C264.062 231.327 264.459 231.219 264.784 231.004C265.109 230.788 265.356 230.478 265.525 230.074C265.694 229.67 265.779 229.186 265.779 228.622C265.779 228.072 265.696 227.586 265.53 227.165C265.364 226.745 265.119 226.415 264.794 226.176C264.469 225.937 264.068 225.818 263.591 225.818C263.094 225.818 262.68 225.944 262.348 226.196C262.02 226.448 261.773 226.786 261.607 227.21C261.445 227.634 261.364 228.105 261.364 228.622C261.364 229.152 261.447 229.621 261.612 230.029C261.781 230.433 262.03 230.752 262.358 230.984C262.69 231.212 263.101 231.327 263.591 231.327ZM272.182 232.659C271.493 232.659 270.888 232.495 270.367 232.167C269.85 231.839 269.446 231.38 269.154 230.79C268.866 230.2 268.722 229.51 268.722 228.722C268.722 227.926 268.866 227.232 269.154 226.638C269.446 226.045 269.85 225.585 270.367 225.256C270.888 224.928 271.493 224.764 272.182 224.764C272.871 224.764 273.475 224.928 273.992 225.256C274.512 225.585 274.916 226.045 275.205 226.638C275.496 227.232 275.642 227.926 275.642 228.722C275.642 229.51 275.496 230.2 275.205 230.79C274.916 231.38 274.512 231.839 273.992 232.167C273.475 232.495 272.871 232.659 272.182 232.659ZM272.182 231.605C272.706 231.605 273.137 231.471 273.475 231.202C273.813 230.934 274.063 230.581 274.225 230.143C274.388 229.706 274.469 229.232 274.469 228.722C274.469 228.211 274.388 227.736 274.225 227.295C274.063 226.854 273.813 226.498 273.475 226.226C273.137 225.954 272.706 225.818 272.182 225.818C271.658 225.818 271.227 225.954 270.889 226.226C270.551 226.498 270.301 226.854 270.139 227.295C269.976 227.736 269.895 228.211 269.895 228.722C269.895 229.232 269.976 229.706 270.139 230.143C270.301 230.581 270.551 230.934 270.889 231.202C271.227 231.471 271.658 231.605 272.182 231.605ZM282.246 229.378V224.864H283.419V232.5H282.246V231.207H282.166C281.987 231.595 281.709 231.925 281.331 232.197C280.953 232.465 280.476 232.599 279.899 232.599C279.422 232.599 278.998 232.495 278.626 232.286C278.255 232.074 277.964 231.756 277.751 231.332C277.539 230.904 277.433 230.366 277.433 229.716V224.864H278.607V229.636C278.607 230.193 278.762 230.637 279.074 230.969C279.389 231.3 279.79 231.466 280.277 231.466C280.569 231.466 280.865 231.391 281.167 231.242C281.472 231.093 281.727 230.864 281.933 230.556C282.141 230.248 282.246 229.855 282.246 229.378ZM291.753 232.679C291.269 232.679 290.83 232.588 290.435 232.406C290.041 232.22 289.728 231.953 289.496 231.605C289.264 231.254 289.148 230.83 289.148 230.332C289.148 229.895 289.234 229.54 289.406 229.268C289.578 228.993 289.809 228.778 290.097 228.622C290.385 228.466 290.704 228.35 291.052 228.274C291.403 228.195 291.756 228.132 292.111 228.085C292.575 228.026 292.951 227.981 293.239 227.951C293.531 227.918 293.743 227.863 293.876 227.787C294.011 227.711 294.079 227.578 294.079 227.389V227.349C294.079 226.859 293.945 226.478 293.677 226.206C293.412 225.934 293.009 225.798 292.469 225.798C291.908 225.798 291.469 225.921 291.151 226.166C290.833 226.411 290.609 226.673 290.48 226.952L289.366 226.554C289.565 226.09 289.83 225.729 290.162 225.47C290.497 225.208 290.861 225.026 291.256 224.923C291.653 224.817 292.044 224.764 292.429 224.764C292.674 224.764 292.956 224.794 293.274 224.854C293.595 224.91 293.905 225.028 294.204 225.207C294.505 225.386 294.756 225.656 294.954 226.017C295.153 226.378 295.253 226.862 295.253 227.469V232.5H294.079V231.466H294.02C293.94 231.632 293.808 231.809 293.622 231.998C293.436 232.187 293.189 232.348 292.881 232.48C292.573 232.613 292.197 232.679 291.753 232.679ZM291.932 231.625C292.396 231.625 292.787 231.534 293.105 231.352C293.426 231.169 293.668 230.934 293.831 230.646C293.997 230.357 294.079 230.054 294.079 229.736V228.662C294.03 228.722 293.92 228.776 293.751 228.826C293.586 228.872 293.393 228.914 293.175 228.95C292.959 228.983 292.749 229.013 292.543 229.04C292.341 229.063 292.177 229.083 292.051 229.099C291.746 229.139 291.461 229.204 291.196 229.293C290.934 229.379 290.722 229.51 290.559 229.686C290.4 229.858 290.321 230.094 290.321 230.392C290.321 230.8 290.472 231.108 290.773 231.317C291.078 231.522 291.464 231.625 291.932 231.625ZM146.074 249.5V241.864H147.207V243.017H147.287C147.426 242.639 147.678 242.333 148.043 242.097C148.407 241.862 148.818 241.744 149.276 241.744C149.362 241.744 149.469 241.746 149.599 241.749C149.728 241.753 149.826 241.758 149.892 241.764V242.957C149.852 242.947 149.761 242.933 149.619 242.913C149.479 242.889 149.332 242.878 149.176 242.878C148.805 242.878 148.473 242.956 148.182 243.112C147.893 243.264 147.665 243.476 147.496 243.748C147.33 244.016 147.247 244.323 147.247 244.668V249.5H146.074ZM154.252 249.659C153.516 249.659 152.882 249.497 152.348 249.172C151.818 248.844 151.408 248.386 151.12 247.8C150.835 247.21 150.692 246.524 150.692 245.741C150.692 244.959 150.835 244.27 151.12 243.673C151.408 243.073 151.809 242.606 152.323 242.271C152.84 241.933 153.443 241.764 154.133 241.764C154.531 241.764 154.923 241.83 155.311 241.963C155.699 242.096 156.052 242.311 156.37 242.609C156.688 242.904 156.942 243.295 157.131 243.783C157.32 244.27 157.414 244.87 157.414 245.582V246.08H151.528V245.065H156.221C156.221 244.634 156.135 244.25 155.962 243.912C155.793 243.574 155.551 243.307 155.237 243.112C154.925 242.916 154.557 242.818 154.133 242.818C153.665 242.818 153.261 242.934 152.92 243.166C152.582 243.395 152.321 243.693 152.139 244.061C151.957 244.429 151.866 244.823 151.866 245.244V245.92C151.866 246.497 151.965 246.986 152.164 247.387C152.366 247.785 152.646 248.088 153.004 248.297C153.362 248.502 153.778 248.605 154.252 248.605C154.56 248.605 154.839 248.562 155.087 248.476C155.339 248.386 155.556 248.254 155.739 248.078C155.921 247.899 156.062 247.677 156.161 247.412L157.295 247.73C157.175 248.115 156.975 248.453 156.693 248.744C156.411 249.033 156.063 249.258 155.649 249.42C155.235 249.58 154.769 249.659 154.252 249.659ZM162.599 241.864V242.858H158.483V241.864H162.599ZM159.716 249.5V240.81C159.716 240.372 159.819 240.008 160.024 239.716C160.23 239.424 160.496 239.205 160.825 239.06C161.153 238.914 161.499 238.841 161.864 238.841C162.152 238.841 162.387 238.864 162.57 238.911C162.752 238.957 162.888 239 162.977 239.04L162.639 240.054C162.58 240.034 162.497 240.009 162.391 239.979C162.288 239.95 162.152 239.935 161.983 239.935C161.595 239.935 161.315 240.032 161.143 240.228C160.974 240.424 160.889 240.71 160.889 241.088V249.5H159.716ZM167.131 249.659C166.395 249.659 165.761 249.497 165.227 249.172C164.697 248.844 164.287 248.386 163.999 247.8C163.714 247.21 163.571 246.524 163.571 245.741C163.571 244.959 163.714 244.27 163.999 243.673C164.287 243.073 164.688 242.606 165.202 242.271C165.719 241.933 166.322 241.764 167.012 241.764C167.409 241.764 167.802 241.83 168.19 241.963C168.578 242.096 168.931 242.311 169.249 242.609C169.567 242.904 169.821 243.295 170.01 243.783C170.199 244.27 170.293 244.87 170.293 245.582V246.08H164.407V245.065H169.1C169.1 244.634 169.014 244.25 168.841 243.912C168.672 243.574 168.43 243.307 168.115 243.112C167.804 242.916 167.436 242.818 167.012 242.818C166.544 242.818 166.14 242.934 165.799 243.166C165.461 243.395 165.2 243.693 165.018 244.061C164.836 244.429 164.745 244.823 164.745 245.244V245.92C164.745 246.497 164.844 246.986 165.043 247.387C165.245 247.785 165.525 248.088 165.883 248.297C166.241 248.502 166.657 248.605 167.131 248.605C167.439 248.605 167.718 248.562 167.966 248.476C168.218 248.386 168.435 248.254 168.618 248.078C168.8 247.899 168.941 247.677 169.04 247.412L170.174 247.73C170.054 248.115 169.854 248.453 169.572 248.744C169.29 249.033 168.942 249.258 168.528 249.42C168.114 249.58 167.648 249.659 167.131 249.659ZM172.078 249.5V241.864H173.211V243.017H173.291C173.43 242.639 173.682 242.333 174.047 242.097C174.411 241.862 174.822 241.744 175.279 241.744C175.366 241.744 175.473 241.746 175.603 241.749C175.732 241.753 175.83 241.758 175.896 241.764V242.957C175.856 242.947 175.765 242.933 175.623 242.913C175.483 242.889 175.336 242.878 175.18 242.878C174.809 242.878 174.477 242.956 174.186 243.112C173.897 243.264 173.669 243.476 173.5 243.748C173.334 244.016 173.251 244.323 173.251 244.668V249.5H172.078ZM180.256 249.659C179.52 249.659 178.886 249.497 178.352 249.172C177.822 248.844 177.412 248.386 177.124 247.8C176.839 247.21 176.696 246.524 176.696 245.741C176.696 244.959 176.839 244.27 177.124 243.673C177.412 243.073 177.813 242.606 178.327 242.271C178.844 241.933 179.447 241.764 180.137 241.764C180.534 241.764 180.927 241.83 181.315 241.963C181.703 242.096 182.056 242.311 182.374 242.609C182.692 242.904 182.946 243.295 183.135 243.783C183.324 244.27 183.418 244.87 183.418 245.582V246.08H177.532V245.065H182.225C182.225 244.634 182.139 244.25 181.966 243.912C181.797 243.574 181.555 243.307 181.24 243.112C180.929 242.916 180.561 242.818 180.137 242.818C179.669 242.818 179.265 242.934 178.924 243.166C178.586 243.395 178.325 243.693 178.143 244.061C177.961 244.429 177.87 244.823 177.87 245.244V245.92C177.87 246.497 177.969 246.986 178.168 247.387C178.37 247.785 178.65 248.088 179.008 248.297C179.366 248.502 179.782 248.605 180.256 248.605C180.564 248.605 180.843 248.562 181.091 248.476C181.343 248.386 181.56 248.254 181.743 248.078C181.925 247.899 182.066 247.677 182.165 247.412L183.299 247.73C183.179 248.115 182.979 248.453 182.697 248.744C182.415 249.033 182.067 249.258 181.653 249.42C181.239 249.58 180.773 249.659 180.256 249.659ZM181.111 240.949L180.077 239.557L179.043 240.949H177.929V240.869L179.54 238.801H180.614L182.225 240.869V240.949H181.111ZM186.376 244.906V249.5H185.203V241.864H186.336V243.057H186.436C186.615 242.669 186.886 242.357 187.251 242.122C187.616 241.884 188.086 241.764 188.663 241.764C189.18 241.764 189.632 241.87 190.02 242.082C190.408 242.291 190.71 242.609 190.925 243.037C191.141 243.461 191.248 243.998 191.248 244.648V249.5H190.075V244.727C190.075 244.127 189.919 243.66 189.608 243.325C189.296 242.987 188.868 242.818 188.325 242.818C187.95 242.818 187.616 242.899 187.321 243.062C187.029 243.224 186.799 243.461 186.63 243.773C186.461 244.084 186.376 244.462 186.376 244.906ZM196.494 249.659C195.779 249.659 195.162 249.49 194.645 249.152C194.128 248.814 193.73 248.348 193.452 247.755C193.173 247.162 193.034 246.484 193.034 245.722C193.034 244.946 193.177 244.262 193.462 243.668C193.75 243.072 194.151 242.606 194.665 242.271C195.182 241.933 195.785 241.764 196.475 241.764C197.012 241.764 197.495 241.864 197.926 242.062C198.357 242.261 198.71 242.54 198.985 242.898C199.26 243.256 199.431 243.673 199.497 244.151H198.324C198.235 243.803 198.036 243.494 197.727 243.226C197.423 242.954 197.012 242.818 196.494 242.818C196.037 242.818 195.636 242.937 195.291 243.176C194.95 243.411 194.683 243.745 194.491 244.175C194.302 244.603 194.208 245.105 194.208 245.682C194.208 246.272 194.3 246.786 194.486 247.223C194.675 247.661 194.94 248 195.281 248.242C195.626 248.484 196.03 248.605 196.494 248.605C196.799 248.605 197.076 248.552 197.325 248.446C197.573 248.34 197.784 248.188 197.956 247.989C198.128 247.79 198.251 247.551 198.324 247.273H199.497C199.431 247.723 199.267 248.129 199.005 248.491C198.747 248.849 198.404 249.134 197.976 249.346C197.552 249.555 197.058 249.659 196.494 249.659ZM201.213 249.5V241.864H202.386V249.5H201.213ZM201.809 240.591C201.58 240.591 201.383 240.513 201.218 240.357C201.055 240.201 200.974 240.014 200.974 239.795C200.974 239.577 201.055 239.389 201.218 239.234C201.383 239.078 201.58 239 201.809 239C202.038 239 202.233 239.078 202.396 239.234C202.561 239.389 202.644 239.577 202.644 239.795C202.644 240.014 202.561 240.201 202.396 240.357C202.233 240.513 202.038 240.591 201.809 240.591ZM206.782 249.679C206.298 249.679 205.859 249.588 205.464 249.406C205.07 249.22 204.757 248.953 204.525 248.605C204.293 248.254 204.177 247.83 204.177 247.332C204.177 246.895 204.263 246.54 204.435 246.268C204.608 245.993 204.838 245.778 205.126 245.622C205.415 245.466 205.733 245.35 206.081 245.274C206.432 245.195 206.785 245.132 207.14 245.085C207.604 245.026 207.98 244.981 208.268 244.951C208.56 244.918 208.772 244.863 208.905 244.787C209.041 244.711 209.109 244.578 209.109 244.389V244.349C209.109 243.859 208.974 243.478 208.706 243.206C208.441 242.934 208.038 242.798 207.498 242.798C206.938 242.798 206.499 242.921 206.18 243.166C205.862 243.411 205.638 243.673 205.509 243.952L204.396 243.554C204.594 243.09 204.86 242.729 205.191 242.47C205.526 242.208 205.89 242.026 206.285 241.923C206.683 241.817 207.074 241.764 207.458 241.764C207.703 241.764 207.985 241.794 208.303 241.854C208.625 241.91 208.935 242.028 209.233 242.207C209.535 242.386 209.785 242.656 209.984 243.017C210.183 243.378 210.282 243.862 210.282 244.469V249.5H209.109V248.466H209.049C208.969 248.632 208.837 248.809 208.651 248.998C208.466 249.187 208.219 249.348 207.911 249.48C207.602 249.613 207.226 249.679 206.782 249.679ZM206.961 248.625C207.425 248.625 207.816 248.534 208.134 248.352C208.456 248.169 208.698 247.934 208.86 247.646C209.026 247.357 209.109 247.054 209.109 246.736V245.662C209.059 245.722 208.95 245.776 208.781 245.826C208.615 245.872 208.423 245.914 208.204 245.95C207.988 245.983 207.778 246.013 207.572 246.04C207.37 246.063 207.206 246.083 207.08 246.099C206.775 246.139 206.49 246.204 206.225 246.293C205.963 246.379 205.751 246.51 205.589 246.686C205.43 246.858 205.35 247.094 205.35 247.392C205.35 247.8 205.501 248.108 205.803 248.317C206.107 248.522 206.494 248.625 206.961 248.625Z" fill="white"/>
<defs>
<linearGradient id="paint0_linear_77_301" x1="230.043" y1="2.47718e-09" x2="229.957" y2="337" gradientUnits="userSpaceOnUse">
<stop offset="0.115" stop-color="white"/>
<stop offset="0.43549" stop-color="#EBF0F0" stop-opacity="0.4"/>
<stop offset="0.88" stop-color="white"/>
</linearGradient>
</defs>
</svg>
